<?xml version="1.0" encoding="UTF-8" standalone="no"?><svg xmlns="http://www.w3.org/2000/svg" xmlns:xlink="http://www.w3.org/1999/xlink" xmlns:inkscape="http://www.inkscape.org/namespaces/inkscape" contentScriptType="text/ecmascript" width="835.74px" zoomAndPan="magnify" contentStyleType="text/css" height="825.88px" viewBox="-17.96 -7.93 835.74 825.88" preserveAspectRatio="xMidYMid meet" version="1.0">
  <title>Test: Circles</title>

  <!-- Row 1: small circles -->
  
  
  
  
  

  <!-- Row 2: medium circles -->
  
  
  
  

  <!-- Row 3: large circles -->
  
  

  <!-- Outline-only circles -->
  
  
  

  <!-- Ellipses -->
  
  
<g inkscape:label="Color #e63946" inkscape:groupmode="layer" id="layer_e63946"><line y2="115.4311" stroke-width="0.50" x1="44.5689" x2="115.2636" stroke="#e63946" y1="44.7364"/><line y2="45.6023" stroke-width="0.50" x1="114.3977" x2="116.1454" stroke="#e63946" y1="43.8546"/><line y2="63.5264" stroke-width="0.50" x1="96.4736" x2="126.9985" stroke="#e63946" y1="33.0015"/><line y2="72.8813" stroke-width="0.50" x1="87.1187" x2="129.2824" stroke="#e63946" y1="30.7176"/><line y2="80.6087" stroke-width="0.50" x1="79.3913" x2="129.9386" stroke="#e63946" y1="30.0614"/><line y2="87.0322" stroke-width="0.50" x1="72.9678" x2="129.2911" stroke="#e63946" y1="30.7089"/><line y2="92.9152" stroke-width="0.50" x1="67.0848" x2="128.1031" stroke="#e63946" y1="31.8969"/><line y2="98.3113" stroke-width="0.50" x1="61.6887" x2="126.4280" stroke="#e63946" y1="33.5720"/><line y2="126.8477" stroke-width="0.50" x1="33.1523" x2="63.0405" stroke="#e63946" y1="96.9595"/><line y2="129.2448" stroke-width="0.50" x1="30.7552" x2="72.5088" stroke="#e63946" y1="87.4912"/><line y2="129.9693" stroke-width="0.50" x1="30.0307" x2="80.3043" stroke="#e63946" y1="79.6957"/><line y2="129.3218" stroke-width="0.50" x1="30.6782" x2="86.7279" stroke="#e63946" y1="73.2721"/><line y2="128.1824" stroke-width="0.50" x1="31.8176" x2="92.6596" stroke="#e63946" y1="67.3404"/><line y2="126.5074" stroke-width="0.50" x1="33.4926" x2="98.0556" stroke="#e63946" y1="61.9444"/><line y2="124.2315" stroke-width="0.50" x1="35.7685" x2="102.8508" stroke="#e63946" y1="57.1492"/><line y2="121.7438" stroke-width="0.50" x1="38.2562" x2="107.4341" stroke="#e63946" y1="52.5659"/><line y2="118.6277" stroke-width="0.50" x1="41.3723" x2="111.3892" stroke="#e63946" y1="48.6108"/><line y2="103.0680" stroke-width="0.50" x1="56.9320" x2="124.1136" stroke="#e63946" y1="35.8864"/><line y2="107.6513" stroke-width="0.50" x1="52.3487" x2="121.6259" stroke="#e63946" y1="38.3741"/><line y2="111.5727" stroke-width="0.50" x1="48.4273" x2="118.4763" stroke="#e63946" y1="41.5237"/><circle fill="none" stroke-width="0.5" r="100" cx="680" cy="650" stroke="#e63946"/></g><g inkscape:label="Color #457b9d" inkscape:groupmode="layer" id="layer_457b9d"><line y2="126.5074" stroke-width="0.50" x1="183.4926" x2="248.0556" stroke="#457b9d" y1="61.9444"/><line y2="126.8477" stroke-width="0.50" x1="183.1523" x2="213.0405" stroke="#457b9d" y1="96.9595"/><line y2="129.2448" stroke-width="0.50" x1="180.7552" x2="222.5088" stroke="#457b9d" y1="87.4912"/><line y2="129.9693" stroke-width="0.50" x1="180.0307" x2="230.3043" stroke="#457b9d" y1="79.6957"/><line y2="129.3218" stroke-width="0.50" x1="180.6782" x2="236.7279" stroke="#457b9d" y1="73.2721"/><line y2="128.1824" stroke-width="0.50" x1="181.8176" x2="242.6596" stroke="#457b9d" y1="67.3404"/><line y2="45.6023" stroke-width="0.50" x1="264.3977" x2="266.1454" stroke="#457b9d" y1="43.8546"/><line y2="63.5264" stroke-width="0.50" x1="246.4736" x2="276.9985" stroke="#457b9d" y1="33.0015"/><line y2="72.8813" stroke-width="0.50" x1="237.1187" x2="279.2824" stroke="#457b9d" y1="30.7176"/><line y2="80.6087" stroke-width="0.50" x1="229.3913" x2="279.9386" stroke="#457b9d" y1="30.0614"/><line y2="87.0322" stroke-width="0.50" x1="222.9678" x2="279.2911" stroke="#457b9d" y1="30.7089"/><line y2="92.9152" stroke-width="0.50" x1="217.0848" x2="278.1031" stroke="#457b9d" y1="31.8969"/><line y2="98.3113" stroke-width="0.50" x1="211.6887" x2="276.4280" stroke="#457b9d" y1="33.5720"/><line y2="103.0680" stroke-width="0.50" x1="206.9320" x2="274.1136" stroke="#457b9d" y1="35.8864"/><line y2="107.6513" stroke-width="0.50" x1="202.3487" x2="271.6259" stroke="#457b9d" y1="38.3741"/><line y2="111.5727" stroke-width="0.50" x1="198.4273" x2="268.4763" stroke="#457b9d" y1="41.5237"/><line y2="124.2315" stroke-width="0.50" x1="185.7685" x2="252.8508" stroke="#457b9d" y1="57.1492"/><line y2="121.7438" stroke-width="0.50" x1="188.2562" x2="257.4341" stroke="#457b9d" y1="52.5659"/><line y2="118.6277" stroke-width="0.50" x1="191.3723" x2="261.3892" stroke="#457b9d" y1="48.6108"/><line y2="115.4311" stroke-width="0.50" x1="194.5689" x2="265.2636" stroke="#457b9d" y1="44.7364"/><circle fill="none" stroke-width="0.5" r="60" cx="680" cy="650" stroke="#457b9d"/></g><g inkscape:label="Color #2dc653" inkscape:groupmode="layer" id="layer_2dc653"><line y2="128.1824" stroke-width="0.50" x1="331.8176" x2="392.6596" stroke="#2dc653" y1="67.3404"/><line y2="126.8477" stroke-width="0.50" x1="333.1523" x2="363.0405" stroke="#2dc653" y1="96.9595"/><line y2="129.2448" stroke-width="0.50" x1="330.7552" x2="372.5088" stroke="#2dc653" y1="87.4912"/><line y2="129.9693" stroke-width="0.50" x1="330.0307" x2="380.3043" stroke="#2dc653" y1="79.6957"/><line y2="129.3218" stroke-width="0.50" x1="330.6782" x2="386.7279" stroke="#2dc653" y1="73.2721"/><line y2="126.5074" stroke-width="0.50" x1="333.4926" x2="398.0556" stroke="#2dc653" y1="61.9444"/><line y2="45.6023" stroke-width="0.50" x1="414.3977" x2="416.1454" stroke="#2dc653" y1="43.8546"/><line y2="63.5264" stroke-width="0.50" x1="396.4736" x2="426.9985" stroke="#2dc653" y1="33.0015"/><line y2="72.8813" stroke-width="0.50" x1="387.1187" x2="429.2824" stroke="#2dc653" y1="30.7176"/><line y2="80.6087" stroke-width="0.50" x1="379.3913" x2="429.9386" stroke="#2dc653" y1="30.0614"/><line y2="87.0322" stroke-width="0.50" x1="372.9678" x2="429.2911" stroke="#2dc653" y1="30.7089"/><line y2="92.9152" stroke-width="0.50" x1="367.0848" x2="428.1031" stroke="#2dc653" y1="31.8969"/><line y2="98.3113" stroke-width="0.50" x1="361.6887" x2="426.4280" stroke="#2dc653" y1="33.5720"/><line y2="103.0680" stroke-width="0.50" x1="356.9320" x2="424.1136" stroke="#2dc653" y1="35.8864"/><line y2="107.6513" stroke-width="0.50" x1="352.3487" x2="421.6259" stroke="#2dc653" y1="38.3741"/><line y2="111.5727" stroke-width="0.50" x1="348.4273" x2="418.4763" stroke="#2dc653" y1="41.5237"/><line y2="124.2315" stroke-width="0.50" x1="335.7685" x2="402.8508" stroke="#2dc653" y1="57.1492"/><line y2="121.7438" stroke-width="0.50" x1="338.2562" x2="407.4341" stroke="#2dc653" y1="52.5659"/><line y2="118.6277" stroke-width="0.50" x1="341.3723" x2="411.3892" stroke="#2dc653" y1="48.6108"/><line y2="115.4311" stroke-width="0.50" x1="344.5689" x2="415.2636" stroke="#2dc653" y1="44.7364"/><circle fill="none" stroke-width="0.5" r="25" cx="680" cy="650" stroke="#2dc653"/></g><g inkscape:label="Color #f4a261" inkscape:groupmode="layer" id="layer_f4a261"><line y2="129.3218" stroke-width="0.50" x1="480.6782" x2="536.7279" stroke="#f4a261" y1="73.2721"/><line y2="126.8477" stroke-width="0.50" x1="483.1523" x2="513.0405" stroke="#f4a261" y1="96.9595"/><line y2="129.2448" stroke-width="0.50" x1="480.7552" x2="522.5088" stroke="#f4a261" y1="87.4912"/><line y2="129.9693" stroke-width="0.50" x1="480.0307" x2="530.3043" stroke="#f4a261" y1="79.6957"/><line y2="128.1824" stroke-width="0.50" x1="481.8176" x2="542.6596" stroke="#f4a261" y1="67.3404"/><line y2="45.6023" stroke-width="0.50" x1="564.3977" x2="566.1454" stroke="#f4a261" y1="43.8546"/><line y2="63.5264" stroke-width="0.50" x1="546.4736" x2="576.9985" stroke="#f4a261" y1="33.0015"/><line y2="72.8813" stroke-width="0.50" x1="537.1187" x2="579.2824" stroke="#f4a261" y1="30.7176"/><line y2="80.6087" stroke-width="0.50" x1="529.3913" x2="579.9386" stroke="#f4a261" y1="30.0614"/><line y2="87.0322" stroke-width="0.50" x1="522.9678" x2="579.2911" stroke="#f4a261" y1="30.7089"/><line y2="92.9152" stroke-width="0.50" x1="517.0848" x2="578.1031" stroke="#f4a261" y1="31.8969"/><line y2="98.3113" stroke-width="0.50" x1="511.6887" x2="576.4280" stroke="#f4a261" y1="33.5720"/><line y2="103.0680" stroke-width="0.50" x1="506.9320" x2="574.1136" stroke="#f4a261" y1="35.8864"/><line y2="107.6513" stroke-width="0.50" x1="502.3487" x2="571.6259" stroke="#f4a261" y1="38.3741"/><line y2="111.5727" stroke-width="0.50" x1="498.4273" x2="568.4763" stroke="#f4a261" y1="41.5237"/><line y2="126.5074" stroke-width="0.50" x1="483.4926" x2="548.0556" stroke="#f4a261" y1="61.9444"/><line y2="124.2315" stroke-width="0.50" x1="485.7685" x2="552.8508" stroke="#f4a261" y1="57.1492"/><line y2="121.7438" stroke-width="0.50" x1="488.2562" x2="557.4341" stroke="#f4a261" y1="52.5659"/><line y2="118.6277" stroke-width="0.50" x1="491.3723" x2="561.3892" stroke="#f4a261" y1="48.6108"/><line y2="115.4311" stroke-width="0.50" x1="494.5689" x2="565.2636" stroke="#f4a261" y1="44.7364"/><line y2="745.3794" stroke-width="0.50" x1="495.2794" x2="539.1866" stroke="#f4a261" y1="701.4722"/><line y2="729.8673" stroke-width="0.50" x1="516.2892" x2="537.8166" stroke="#f4a261" y1="708.3400"/><line y2="738.9654" stroke-width="0.50" x1="504.3997" x2="539.8435" stroke="#f4a261" y1="703.5215"/><line y2="750.7794" stroke-width="0.50" x1="487.2214" x2="537.5154" stroke="#f4a261" y1="700.4853"/><line y2="755.5974" stroke-width="0.50" x1="479.6861" x2="535.2624" stroke="#f4a261" y1="700.0211"/><line y2="759.4951" stroke-width="0.50" x1="473.0603" x2="532.0890" stroke="#f4a261" y1="700.4664"/><line y2="763.1982" stroke-width="0.50" x1="466.6051" x2="528.7210" stroke="#f4a261" y1="701.0823"/><line y2="766.3583" stroke-width="0.50" x1="460.7465" x2="524.8101" stroke="#f4a261" y1="702.2947"/><line y2="769.2642" stroke-width="0.50" x1="455.0877" x2="520.6449" stroke="#f4a261" y1="703.7070"/><line y2="771.7734" stroke-width="0.50" x1="449.8955" x2="516.0831" stroke="#f4a261" y1="705.5858"/><line y2="774.0028" stroke-width="0.50" x1="444.9157" x2="511.2414" stroke="#f4a261" y1="707.6772"/><line y2="773.3468" stroke-width="0.50" x1="421.1404" x2="446.9457" stroke="#f4a261" y1="747.5414"/><line y2="777.0866" stroke-width="0.50" x1="420.0880" x2="457.7566" stroke="#f4a261" y1="739.4180"/><line y2="778.9318" stroke-width="0.50" x1="421.0168" x2="466.6729" stroke="#f4a261" y1="733.2757"/><line y2="779.6262" stroke-width="0.50" x1="422.9764" x2="474.4384" stroke="#f4a261" y1="728.1643"/><line y2="779.8814" stroke-width="0.50" x1="425.4324" x2="481.7646" stroke="#f4a261" y1="723.5492"/><line y2="779.4361" stroke-width="0.50" x1="428.6058" x2="488.3904" stroke="#f4a261" y1="719.6515"/><line y2="775.8816" stroke-width="0.50" x1="440.3539" x2="506.0491" stroke="#f4a261" y1="710.1864"/><line y2="777.4399" stroke-width="0.50" x1="436.0463" x2="500.5363" stroke="#f4a261" y1="712.9498"/><line y2="778.6523" stroke-width="0.50" x1="432.1353" x2="494.6776" stroke="#f4a261" y1="716.1099"/></g><g inkscape:label="Color #9b5de5" inkscape:groupmode="layer" id="layer_9b5de5"><line y2="129.3218" stroke-width="0.50" x1="630.6782" x2="686.7279" stroke="#9b5de5" y1="73.2721"/><line y2="126.8477" stroke-width="0.50" x1="633.1523" x2="663.0405" stroke="#9b5de5" y1="96.9595"/><line y2="129.2448" stroke-width="0.50" x1="630.7552" x2="672.5088" stroke="#9b5de5" y1="87.4912"/><line y2="129.9693" stroke-width="0.50" x1="630.0307" x2="680.3043" stroke="#9b5de5" y1="79.6957"/><line y2="128.1824" stroke-width="0.50" x1="631.8176" x2="692.6596" stroke="#9b5de5" y1="67.3404"/><line y2="45.6023" stroke-width="0.50" x1="714.3977" x2="716.1454" stroke="#9b5de5" y1="43.8546"/><line y2="63.5264" stroke-width="0.50" x1="696.4736" x2="726.9985" stroke="#9b5de5" y1="33.0015"/><line y2="72.8813" stroke-width="0.50" x1="687.1187" x2="729.2824" stroke="#9b5de5" y1="30.7176"/><line y2="80.6087" stroke-width="0.50" x1="679.3913" x2="729.9386" stroke="#9b5de5" y1="30.0614"/><line y2="87.0322" stroke-width="0.50" x1="672.9678" x2="729.2911" stroke="#9b5de5" y1="30.7089"/><line y2="92.9152" stroke-width="0.50" x1="667.0848" x2="728.1031" stroke="#9b5de5" y1="31.8969"/><line y2="98.3113" stroke-width="0.50" x1="661.6887" x2="726.4280" stroke="#9b5de5" y1="33.5720"/><line y2="103.0680" stroke-width="0.50" x1="656.9320" x2="724.1136" stroke="#9b5de5" y1="35.8864"/><line y2="107.6513" stroke-width="0.50" x1="652.3487" x2="721.6259" stroke="#9b5de5" y1="38.3741"/><line y2="111.5727" stroke-width="0.50" x1="648.4273" x2="718.4763" stroke="#9b5de5" y1="41.5237"/><line y2="126.5074" stroke-width="0.50" x1="633.4926" x2="698.0556" stroke="#9b5de5" y1="61.9444"/><line y2="124.2315" stroke-width="0.50" x1="635.7685" x2="702.8508" stroke="#9b5de5" y1="57.1492"/><line y2="121.7438" stroke-width="0.50" x1="638.2562" x2="707.4341" stroke="#9b5de5" y1="52.5659"/><line y2="118.6277" stroke-width="0.50" x1="641.3723" x2="711.3892" stroke="#9b5de5" y1="48.6108"/><line y2="115.4311" stroke-width="0.50" x1="644.5689" x2="715.2636" stroke="#9b5de5" y1="44.7364"/><line y2="738.9494" stroke-width="0.50" x1="259.4506" x2="279.8276" stroke="#9b5de5" y1="718.5724"/><line y2="745.0469" stroke-width="0.50" x1="247.6632" x2="278.8541" stroke="#9b5de5" y1="713.8561"/><line y2="749.4568" stroke-width="0.50" x1="237.2704" x2="276.1928" stroke="#9b5de5" y1="710.5344"/><line y2="753.0803" stroke-width="0.50" x1="227.7934" x2="272.7453" stroke="#9b5de5" y1="708.1284"/><line y2="756.1560" stroke-width="0.50" x1="218.7719" x2="268.7499" stroke="#9b5de5" y1="706.1780"/><line y2="758.7142" stroke-width="0.50" x1="210.2831" x2="264.2371" stroke="#9b5de5" y1="704.7603"/><line y2="761.2725" stroke-width="0.50" x1="201.7943" x2="259.7242" stroke="#9b5de5" y1="703.3426"/><line y2="763.4653" stroke-width="0.50" x1="193.8823" x2="254.8460" stroke="#9b5de5" y1="702.5016"/><line y2="765.3860" stroke-width="0.50" x1="186.0645" x2="249.6956" stroke="#9b5de5" y1="701.7549"/><line y2="767.3067" stroke-width="0.50" x1="178.2468" x2="244.5453" stroke="#9b5de5" y1="701.0082"/><line y2="768.9873" stroke-width="0.50" x1="170.8131" x2="239.1548" stroke="#9b5de5" y1="700.6456"/><line y2="770.4189" stroke-width="0.50" x1="163.5157" x2="233.5154" stroke="#9b5de5" y1="700.4192"/><line y2="771.8506" stroke-width="0.50" x1="156.2183" x2="227.8760" stroke="#9b5de5" y1="700.1929"/><line y2="773.2490" stroke-width="0.50" x1="148.9858" x2="222.2033" stroke="#9b5de5" y1="700.0315"/><line y2="774.2609" stroke-width="0.50" x1="142.1274" x2="216.1441" stroke="#9b5de5" y1="700.2442"/><line y2="775.2728" stroke-width="0.50" x1="135.2691" x2="210.0850" stroke="#9b5de5" y1="700.4569"/><line y2="776.2848" stroke-width="0.50" x1="128.4108" x2="204.0259" stroke="#9b5de5" y1="700.6697"/><line y2="777.1247" stroke-width="0.50" x1="121.6848" x2="197.7948" stroke="#9b5de5" y1="701.0147"/><line y2="777.7412" stroke-width="0.50" x1="115.2302" x2="191.3402" stroke="#9b5de5" y1="701.6312"/><line y2="778.3577" stroke-width="0.50" x1="108.7756" x2="184.8856" stroke="#9b5de5" y1="702.2477"/><line y2="778.9742" stroke-width="0.50" x1="102.3211" x2="178.4310" stroke="#9b5de5" y1="702.8642"/><line y2="779.3265" stroke-width="0.50" x1="96.0828" x2="171.7123" stroke="#9b5de5" y1="703.6971"/><line y2="779.5393" stroke-width="0.50" x1="90.0237" x2="164.8540" stroke="#9b5de5" y1="704.7090"/><line y2="779.7520" stroke-width="0.50" x1="83.9646" x2="157.9956" stroke="#9b5de5" y1="705.7210"/><line y2="779.9647" stroke-width="0.50" x1="77.9054" x2="151.1373" stroke="#9b5de5" y1="706.7329"/><line y2="779.8112" stroke-width="0.50" x1="72.2252" x2="143.9127" stroke="#9b5de5" y1="708.1237"/><line y2="779.5848" stroke-width="0.50" x1="66.5858" x2="136.6153" stroke="#9b5de5" y1="709.5554"/><line y2="779.3585" stroke-width="0.50" x1="60.9464" x2="129.3178" stroke="#9b5de5" y1="710.9871"/><line y2="779.0052" stroke-width="0.50" x1="55.5471" x2="121.8935" stroke="#9b5de5" y1="712.6589"/><line y2="778.2585" stroke-width="0.50" x1="50.3968" x2="114.0757" stroke="#9b5de5" y1="714.5796"/><line y2="777.5118" stroke-width="0.50" x1="45.2464" x2="106.2580" stroke="#9b5de5" y1="716.5003"/><line y2="776.6829" stroke-width="0.50" x1="40.3567" x2="98.3580" stroke="#9b5de5" y1="718.6816"/><line y2="775.2652" stroke-width="0.50" x1="35.8439" x2="89.8692" stroke="#9b5de5" y1="721.2399"/><line y2="761.5936" stroke-width="0.50" x1="20.1475" x2="40.8423" stroke="#9b5de5" y1="740.8988"/><line y2="766.2194" stroke-width="0.50" x1="21.1880" x2="52.5391" stroke="#9b5de5" y1="734.8683"/><line y2="769.5088" stroke-width="0.50" x1="23.8649" x2="62.8996" stroke="#9b5de5" y1="730.4741"/><line y2="771.9147" stroke-width="0.50" x1="27.3237" x2="72.3766" stroke="#9b5de5" y1="726.8618"/><line y2="773.8475" stroke-width="0.50" x1="31.3311" x2="81.3804" stroke="#9b5de5" y1="723.7981"/></g><g inkscape:label="Color #0077b6" inkscape:groupmode="layer" id="layer_0077b6"><line y2="278.3377" stroke-width="0.50" x1="71.6623" x2="174.7387" stroke="#0077b6" y1="175.2613"/><line y2="207.8838" stroke-width="0.50" x1="142.1162" x2="167.9244" stroke="#0077b6" y1="182.0756"/><line y2="221.8308" stroke-width="0.50" x1="128.1692" x2="174.8004" stroke="#0077b6" y1="175.1996"/><line y2="231.9912" stroke-width="0.50" x1="118.0088" x2="177.8898" stroke="#0077b6" y1="172.1102"/><line y2="240.5684" stroke-width="0.50" x1="109.4316" x2="179.3959" stroke="#0077b6" y1="170.6041"/><line y2="248.1502" stroke-width="0.50" x1="101.8498" x2="179.9066" stroke="#0077b6" y1="170.0934"/><line y2="255.0592" stroke-width="0.50" x1="94.9408" x2="179.7445" stroke="#0077b6" y1="170.2555"/><line y2="261.4705" stroke-width="0.50" x1="88.5295" x2="179.0847" stroke="#0077b6" y1="170.9153"/><line y2="267.4820" stroke-width="0.50" x1="82.5180" x2="178.0252" stroke="#0077b6" y1="171.9748"/><line y2="273.1068" stroke-width="0.50" x1="76.8932" x2="176.5789" stroke="#0077b6" y1="173.4211"/><line y2="283.3287" stroke-width="0.50" x1="66.6713" x2="172.6587" stroke="#0077b6" y1="177.3413"/><line y2="319.2837" stroke-width="0.50" x1="30.7163" x2="60.1213" stroke="#0077b6" y1="289.8787"/><line y2="325.3074" stroke-width="0.50" x1="24.6926" x2="73.2160" stroke="#0077b6" y1="276.7840"/><line y2="328.1937" stroke-width="0.50" x1="21.8063" x2="83.1734" stroke="#0077b6" y1="266.8266"/><line y2="329.5541" stroke-width="0.50" x1="20.4459" x2="91.6048" stroke="#0077b6" y1="258.3952"/><line y2="329.9533" stroke-width="0.50" x1="20.0467" x2="99.0751" stroke="#0077b6" y1="250.9249"/><line y2="329.7023" stroke-width="0.50" x1="20.2977" x2="105.8952" stroke="#0077b6" y1="244.1048"/><line y2="328.9684" stroke-width="0.50" x1="21.0316" x2="112.2324" stroke="#0077b6" y1="237.7676"/><line y2="327.8456" stroke-width="0.50" x1="22.1544" x2="118.1806" stroke="#0077b6" y1="231.8194"/><line y2="326.3980" stroke-width="0.50" x1="23.6020" x2="123.8041" stroke="#0077b6" y1="226.1959"/><line y2="324.5034" stroke-width="0.50" x1="25.4966" x2="128.9806" stroke="#0077b6" y1="221.0194"/><line y2="322.3732" stroke-width="0.50" x1="27.6268" x2="133.9214" stroke="#0077b6" y1="216.0786"/><line y2="320.0304" stroke-width="0.50" x1="29.9696" x2="138.6497" stroke="#0077b6" y1="211.3503"/><line y2="317.3581" stroke-width="0.50" x1="32.6419" x2="143.0484" stroke="#0077b6" y1="206.9516"/><line y2="314.3617" stroke-width="0.50" x1="35.6383" x2="147.1231" stroke="#0077b6" y1="202.8769"/><line y2="311.1650" stroke-width="0.50" x1="38.8350" x2="150.9975" stroke="#0077b6" y1="199.0025"/><line y2="288.1009" stroke-width="0.50" x1="61.8991" x2="170.3598" stroke="#0077b6" y1="179.6402"/><line y2="292.5021" stroke-width="0.50" x1="57.4979" x2="167.6900" stroke="#0077b6" y1="182.3100"/><line y2="296.6420" stroke-width="0.50" x1="53.3580" x2="164.7587" stroke="#0077b6" y1="185.2413"/><line y2="300.5164" stroke-width="0.50" x1="49.4836" x2="161.5621" stroke="#0077b6" y1="188.4379"/><line y2="304.3908" stroke-width="0.50" x1="45.6092" x2="158.3654" stroke="#0077b6" y1="191.6346"/><line y2="307.9684" stroke-width="0.50" x1="42.0316" x2="154.8719" stroke="#0077b6" y1="195.1281"/></g><g inkscape:label="Color #d62828" inkscape:groupmode="layer" id="layer_d62828"><line y2="314.3617" stroke-width="0.50" x1="255.6383" x2="367.1231" stroke="#d62828" y1="202.8769"/><line y2="319.2837" stroke-width="0.50" x1="250.7163" x2="280.1213" stroke="#d62828" y1="289.8787"/><line y2="325.3074" stroke-width="0.50" x1="244.6926" x2="293.2160" stroke="#d62828" y1="276.7840"/><line y2="328.1937" stroke-width="0.50" x1="241.8063" x2="303.1734" stroke="#d62828" y1="266.8266"/><line y2="329.5541" stroke-width="0.50" x1="240.4459" x2="311.6048" stroke="#d62828" y1="258.3952"/><line y2="329.9533" stroke-width="0.50" x1="240.0467" x2="319.0751" stroke="#d62828" y1="250.9249"/><line y2="329.7023" stroke-width="0.50" x1="240.2977" x2="325.8952" stroke="#d62828" y1="244.1048"/><line y2="328.9684" stroke-width="0.50" x1="241.0316" x2="332.2324" stroke="#d62828" y1="237.7676"/><line y2="327.8456" stroke-width="0.50" x1="242.1544" x2="338.1806" stroke="#d62828" y1="231.8194"/><line y2="326.3980" stroke-width="0.50" x1="243.6020" x2="343.8041" stroke="#d62828" y1="226.1959"/><line y2="324.5034" stroke-width="0.50" x1="245.4966" x2="348.9806" stroke="#d62828" y1="221.0194"/><line y2="207.8838" stroke-width="0.50" x1="362.1162" x2="387.9244" stroke="#d62828" y1="182.0756"/><line y2="221.8308" stroke-width="0.50" x1="348.1692" x2="394.8004" stroke="#d62828" y1="175.1996"/><line y2="231.9912" stroke-width="0.50" x1="338.0088" x2="397.8898" stroke="#d62828" y1="172.1102"/><line y2="240.5684" stroke-width="0.50" x1="329.4316" x2="399.3959" stroke="#d62828" y1="170.6041"/><line y2="248.1502" stroke-width="0.50" x1="321.8498" x2="399.9066" stroke="#d62828" y1="170.0934"/><line y2="255.0592" stroke-width="0.50" x1="314.9408" x2="399.7445" stroke="#d62828" y1="170.2555"/><line y2="261.4705" stroke-width="0.50" x1="308.5295" x2="399.0847" stroke="#d62828" y1="170.9153"/><line y2="267.4820" stroke-width="0.50" x1="302.5180" x2="398.0252" stroke="#d62828" y1="171.9748"/><line y2="273.1068" stroke-width="0.50" x1="296.8932" x2="396.5789" stroke="#d62828" y1="173.4211"/><line y2="278.3377" stroke-width="0.50" x1="291.6623" x2="394.7387" stroke="#d62828" y1="175.2613"/><line y2="283.3287" stroke-width="0.50" x1="286.6713" x2="392.6587" stroke="#d62828" y1="177.3413"/><line y2="288.1009" stroke-width="0.50" x1="281.8991" x2="390.3598" stroke="#d62828" y1="179.6402"/><line y2="292.5021" stroke-width="0.50" x1="277.4979" x2="387.6900" stroke="#d62828" y1="182.3100"/><line y2="296.6420" stroke-width="0.50" x1="273.3580" x2="384.7587" stroke="#d62828" y1="185.2413"/><line y2="300.5164" stroke-width="0.50" x1="269.4836" x2="381.5621" stroke="#d62828" y1="188.4379"/><line y2="322.3732" stroke-width="0.50" x1="247.6268" x2="353.9214" stroke="#d62828" y1="216.0786"/><line y2="320.0304" stroke-width="0.50" x1="249.9696" x2="358.6497" stroke="#d62828" y1="211.3503"/><line y2="317.3581" stroke-width="0.50" x1="252.6419" x2="363.0484" stroke="#d62828" y1="206.9516"/><line y2="311.1650" stroke-width="0.50" x1="258.8350" x2="370.9975" stroke="#d62828" y1="199.0025"/><line y2="307.9684" stroke-width="0.50" x1="262.0316" x2="374.8719" stroke="#d62828" y1="195.1281"/><line y2="304.3908" stroke-width="0.50" x1="265.6092" x2="378.3654" stroke="#d62828" y1="191.6346"/></g><g inkscape:label="Color #606c38" inkscape:groupmode="layer" id="layer_606c38"><line y2="322.3732" stroke-width="0.50" x1="467.6268" x2="573.9214" stroke="#606c38" y1="216.0786"/><line y2="319.2837" stroke-width="0.50" x1="470.7163" x2="500.1213" stroke="#606c38" y1="289.8787"/><line y2="325.3074" stroke-width="0.50" x1="464.6926" x2="513.2160" stroke="#606c38" y1="276.7840"/><line y2="328.1937" stroke-width="0.50" x1="461.8063" x2="523.1734" stroke="#606c38" y1="266.8266"/><line y2="329.5541" stroke-width="0.50" x1="460.4459" x2="531.6048" stroke="#606c38" y1="258.3952"/><line y2="329.9533" stroke-width="0.50" x1="460.0467" x2="539.0751" stroke="#606c38" y1="250.9249"/><line y2="329.7023" stroke-width="0.50" x1="460.2977" x2="545.8952" stroke="#606c38" y1="244.1048"/><line y2="328.9684" stroke-width="0.50" x1="461.0316" x2="552.2324" stroke="#606c38" y1="237.7676"/><line y2="327.8456" stroke-width="0.50" x1="462.1544" x2="558.1806" stroke="#606c38" y1="231.8194"/><line y2="326.3980" stroke-width="0.50" x1="463.6020" x2="563.8041" stroke="#606c38" y1="226.1959"/><line y2="324.5034" stroke-width="0.50" x1="465.4966" x2="568.9806" stroke="#606c38" y1="221.0194"/><line y2="207.8838" stroke-width="0.50" x1="582.1162" x2="607.9244" stroke="#606c38" y1="182.0756"/><line y2="221.8308" stroke-width="0.50" x1="568.1692" x2="614.8004" stroke="#606c38" y1="175.1996"/><line y2="231.9912" stroke-width="0.50" x1="558.0088" x2="617.8898" stroke="#606c38" y1="172.1102"/><line y2="240.5684" stroke-width="0.50" x1="549.4316" x2="619.3959" stroke="#606c38" y1="170.6041"/><line y2="248.1502" stroke-width="0.50" x1="541.8498" x2="619.9066" stroke="#606c38" y1="170.0934"/><line y2="255.0592" stroke-width="0.50" x1="534.9408" x2="619.7445" stroke="#606c38" y1="170.2555"/><line y2="261.4705" stroke-width="0.50" x1="528.5295" x2="619.0847" stroke="#606c38" y1="170.9153"/><line y2="267.4820" stroke-width="0.50" x1="522.5180" x2="618.0252" stroke="#606c38" y1="171.9748"/><line y2="273.1068" stroke-width="0.50" x1="516.8932" x2="616.5789" stroke="#606c38" y1="173.4211"/><line y2="278.3377" stroke-width="0.50" x1="511.6623" x2="614.7387" stroke="#606c38" y1="175.2613"/><line y2="283.3287" stroke-width="0.50" x1="506.6713" x2="612.6587" stroke="#606c38" y1="177.3413"/><line y2="288.1009" stroke-width="0.50" x1="501.8991" x2="610.3598" stroke="#606c38" y1="179.6402"/><line y2="292.5021" stroke-width="0.50" x1="497.4979" x2="607.6900" stroke="#606c38" y1="182.3100"/><line y2="296.6420" stroke-width="0.50" x1="493.3580" x2="604.7587" stroke="#606c38" y1="185.2413"/><line y2="300.5164" stroke-width="0.50" x1="489.4836" x2="601.5621" stroke="#606c38" y1="188.4379"/><line y2="320.0304" stroke-width="0.50" x1="469.9696" x2="578.6497" stroke="#606c38" y1="211.3503"/><line y2="317.3581" stroke-width="0.50" x1="472.6419" x2="583.0484" stroke="#606c38" y1="206.9516"/><line y2="314.3617" stroke-width="0.50" x1="475.6383" x2="587.1231" stroke="#606c38" y1="202.8769"/><line y2="311.1650" stroke-width="0.50" x1="478.8350" x2="590.9975" stroke="#606c38" y1="199.0025"/><line y2="307.9684" stroke-width="0.50" x1="482.0316" x2="594.8719" stroke="#606c38" y1="195.1281"/><line y2="304.3908" stroke-width="0.50" x1="485.6092" x2="598.3654" stroke="#606c38" y1="191.6346"/></g><g inkscape:label="Color #f72585" inkscape:groupmode="layer" id="layer_f72585"><line y2="305.8089" stroke-width="0.50" x1="664.1911" x2="741.6667" stroke="#f72585" y1="228.3333"/><line y2="298.1488" stroke-width="0.50" x1="671.8512" x2="684.5092" stroke="#f72585" y1="285.4908"/><line y2="306.2172" stroke-width="0.50" x1="663.7828" x2="699.6487" stroke="#f72585" y1="270.3513"/><line y2="308.9352" stroke-width="0.50" x1="661.0648" x2="709.4378" stroke="#f72585" y1="260.5622"/><line y2="309.7280" stroke-width="0.50" x1="660.2720" x2="717.3016" stroke="#f72585" y1="252.6984"/><line y2="309.5747" stroke-width="0.50" x1="660.4253" x2="724.2193" stroke="#f72585" y1="245.7807"/><line y2="308.9271" stroke-width="0.50" x1="661.0729" x2="730.6428" stroke="#f72585" y1="239.3572"/><line y2="307.4839" stroke-width="0.50" x1="662.5161" x2="736.2707" stroke="#f72585" y1="233.7293"/><line y2="303.5754" stroke-width="0.50" x1="666.4246" x2="746.5043" stroke="#f72585" y1="223.4957"/><line y2="225.8681" stroke-width="0.50" x1="744.1319" x2="774.8631" stroke="#f72585" y1="195.1369"/><line y2="236.3841" stroke-width="0.50" x1="733.6159" x2="778.3080" stroke="#f72585" y1="191.6920"/><line y2="244.6031" stroke-width="0.50" x1="725.3969" x2="779.4559" stroke="#f72585" y1="190.5441"/><line y2="252.0151" stroke-width="0.50" x1="717.9849" x2="779.7969" stroke="#f72585" y1="190.2031"/><line y2="258.4386" stroke-width="0.50" x1="711.5614" x2="779.1493" stroke="#f72585" y1="190.8507"/><line y2="264.4191" stroke-width="0.50" x1="705.5809" x2="778.0587" stroke="#f72585" y1="191.9413"/><line y2="269.8151" stroke-width="0.50" x1="700.1849" x2="776.3837" stroke="#f72585" y1="193.6163"/><line y2="274.9315" stroke-width="0.50" x1="695.0685" x2="774.4290" stroke="#f72585" y1="195.5710"/><line y2="279.5149" stroke-width="0.50" x1="690.4851" x2="771.9413" stroke="#f72585" y1="198.0587"/><line y2="284.0129" stroke-width="0.50" x1="685.9871" x2="769.3682" stroke="#f72585" y1="200.6318"/><line y2="287.8873" stroke-width="0.50" x1="682.1127" x2="766.1715" stroke="#f72585" y1="203.8285"/><line y2="301.0876" stroke-width="0.50" x1="668.9124" x2="751.0876" stroke="#f72585" y1="218.9124"/><line y2="298.2713" stroke-width="0.50" x1="671.7287" x2="755.3424" stroke="#f72585" y1="214.6576"/><line y2="295.0746" stroke-width="0.50" x1="674.9254" x2="759.2168" stroke="#f72585" y1="210.7832"/><line y2="291.7617" stroke-width="0.50" x1="678.2383" x2="762.9749" stroke="#f72585" y1="207.0251"/></g><g inkscape:label="Color #ffb703" inkscape:groupmode="layer" id="layer_ffb703"><line y2="566.1424" stroke-width="0.50" x1="113.8576" x2="274.8023" stroke="#ffb703" y1="405.1977"/><line y2="456.9132" stroke-width="0.50" x1="223.0868" x2="257.4970" stroke="#ffb703" y1="422.5030"/><line y2="473.3648" stroke-width="0.50" x1="206.6352" x2="266.8775" stroke="#ffb703" y1="413.1225"/><line y2="485.6192" stroke-width="0.50" x1="194.3808" x2="272.0609" stroke="#ffb703" y1="407.9391"/><line y2="495.9765" stroke-width="0.50" x1="184.0235" x2="275.3471" stroke="#ffb703" y1="404.6529"/><line y2="505.2860" stroke-width="0.50" x1="174.7140" x2="277.5856" stroke="#ffb703" y1="402.4144"/><line y2="513.6307" stroke-width="0.50" x1="166.3693" x2="278.8591" stroke="#ffb703" y1="401.1409"/><line y2="521.4088" stroke-width="0.50" x1="158.5912" x2="279.5662" stroke="#ffb703" y1="400.4338"/><line y2="528.8559" stroke-width="0.50" x1="151.1441" x2="279.9422" stroke="#ffb703" y1="400.0578"/><line y2="535.6971" stroke-width="0.50" x1="144.3029" x2="279.7123" stroke="#ffb703" y1="400.2877"/><line y2="542.4282" stroke-width="0.50" x1="137.5718" x2="279.3724" stroke="#ffb703" y1="400.6276"/><line y2="548.6395" stroke-width="0.50" x1="131.3605" x2="278.5127" stroke="#ffb703" y1="401.4873"/><line y2="554.7743" stroke-width="0.50" x1="125.2257" x2="277.5764" stroke="#ffb703" y1="402.4236"/><line y2="560.5176" stroke-width="0.50" x1="119.4824" x2="276.2486" stroke="#ffb703" y1="403.7514"/><line y2="571.5193" stroke-width="0.50" x1="108.4807" x2="273.1082" stroke="#ffb703" y1="406.8918"/><line y2="638.4816" stroke-width="0.50" x1="41.5184" x2="78.4410" stroke="#ffb703" y1="601.5590"/><line y2="647.3824" stroke-width="0.50" x1="32.6176" x2="94.4128" stroke="#ffb703" y1="585.5872"/><line y2="652.3745" stroke-width="0.50" x1="27.6255" x2="106.4760" stroke="#ffb703" y1="573.5240"/><line y2="655.5351" stroke-width="0.50" x1="24.4649" x2="116.7077" stroke="#ffb703" y1="563.2923"/><line y2="657.6834" stroke-width="0.50" x1="22.3166" x2="125.9270" stroke="#ffb703" y1="554.0730"/><line y2="658.9570" stroke-width="0.50" x1="21.0430" x2="134.2716" stroke="#ffb703" y1="545.7284"/><line y2="659.5951" stroke-width="0.50" x1="20.4049" x2="141.9808" stroke="#ffb703" y1="538.0192"/><line y2="659.9711" stroke-width="0.50" x1="20.0289" x2="149.4279" stroke="#ffb703" y1="530.5721"/><line y2="659.6862" stroke-width="0.50" x1="20.3138" x2="156.2141" stroke="#ffb703" y1="523.7859"/><line y2="659.3463" stroke-width="0.50" x1="20.6537" x2="162.9453" stroke="#ffb703" y1="517.0547"/><line y2="658.4407" stroke-width="0.50" x1="21.5593" x2="169.1108" stroke="#ffb703" y1="510.8892"/><line y2="657.5045" stroke-width="0.50" x1="22.4955" x2="175.2456" stroke="#ffb703" y1="504.7544"/><line y2="656.1375" stroke-width="0.50" x1="23.8625" x2="180.9497" stroke="#ffb703" y1="499.0503"/><line y2="654.6912" stroke-width="0.50" x1="25.3088" x2="186.5744" stroke="#ffb703" y1="493.4256"/><line y2="652.9627" stroke-width="0.50" x1="27.0373" x2="191.9170" stroke="#ffb703" y1="488.0830"/><line y2="651.0681" stroke-width="0.50" x1="28.9319" x2="197.0934" stroke="#ffb703" y1="482.9066"/><line y2="649.0432" stroke-width="0.50" x1="30.9568" x2="202.1396" stroke="#ffb703" y1="477.8604"/><line y2="646.7443" stroke-width="0.50" x1="33.2557" x2="206.9118" stroke="#ffb703" y1="473.0882"/><line y2="644.4454" stroke-width="0.50" x1="35.5546" x2="211.6840" stroke="#ffb703" y1="468.3160"/><line y2="641.7952" stroke-width="0.50" x1="38.2048" x2="216.1048" stroke="#ffb703" y1="463.8952"/><line y2="639.1228" stroke-width="0.50" x1="40.8772" x2="220.5036" stroke="#ffb703" y1="459.4964"/><line y2="636.2725" stroke-width="0.50" x1="43.7275" x2="224.7243" stroke="#ffb703" y1="455.2757"/><line y2="633.2472" stroke-width="0.50" x1="46.7528" x2="228.7700" stroke="#ffb703" y1="451.2300"/><line y2="576.6958" stroke-width="0.50" x1="103.3042" x2="271.2136" stroke="#ffb703" y1="408.7864"/><line y2="581.7730" stroke-width="0.50" x1="98.2270" x2="269.2198" stroke="#ffb703" y1="410.7802"/><line y2="586.5452" stroke-width="0.50" x1="93.4548" x2="266.9209" stroke="#ffb703" y1="413.0791"/><line y2="591.3174" stroke-width="0.50" x1="88.6826" x2="264.6220" stroke="#ffb703" y1="415.3780"/><line y2="595.7669" stroke-width="0.50" x1="84.2331" x2="262.0004" stroke="#ffb703" y1="417.9996"/><line y2="600.1657" stroke-width="0.50" x1="79.8343" x2="259.3281" stroke="#ffb703" y1="420.6719"/><line y2="604.4135" stroke-width="0.50" x1="75.5865" x2="256.5049" stroke="#ffb703" y1="423.4951"/><line y2="608.4592" stroke-width="0.50" x1="71.5408" x2="253.4796" stroke="#ffb703" y1="426.5204"/><line y2="612.5050" stroke-width="0.50" x1="67.4950" x2="250.4542" stroke="#ffb703" y1="429.5458"/><line y2="616.2251" stroke-width="0.50" x1="63.7749" x2="247.1033" stroke="#ffb703" y1="432.8967"/><line y2="619.9294" stroke-width="0.50" x1="60.0706" x2="243.7366" stroke="#ffb703" y1="436.2634"/><line y2="626.8447" stroke-width="0.50" x1="53.1553" x2="236.5097" stroke="#ffb703" y1="443.4903"/><line y2="630.2114" stroke-width="0.50" x1="49.7886" x2="232.8053" stroke="#ffb703" y1="447.1947"/><line y2="623.4779" stroke-width="0.50" x1="56.5221" x2="240.2140" stroke="#ffb703" y1="439.7860"/></g><g inkscape:label="Color #48cae4" inkscape:groupmode="layer" id="layer_48cae4"><line y2="619.9294" stroke-width="0.50" x1="410.0706" x2="593.7366" stroke="#48cae4" y1="436.2634"/><line y2="456.9132" stroke-width="0.50" x1="573.0868" x2="607.4970" stroke="#48cae4" y1="422.5030"/><line y2="473.3648" stroke-width="0.50" x1="556.6352" x2="616.8775" stroke="#48cae4" y1="413.1225"/><line y2="485.6192" stroke-width="0.50" x1="544.3808" x2="622.0609" stroke="#48cae4" y1="407.9391"/><line y2="495.9765" stroke-width="0.50" x1="534.0235" x2="625.3471" stroke="#48cae4" y1="404.6529"/><line y2="505.2860" stroke-width="0.50" x1="524.7140" x2="627.5856" stroke="#48cae4" y1="402.4144"/><line y2="513.6307" stroke-width="0.50" x1="516.3693" x2="628.8591" stroke="#48cae4" y1="401.1409"/><line y2="521.4088" stroke-width="0.50" x1="508.5912" x2="629.5662" stroke="#48cae4" y1="400.4338"/><line y2="528.8559" stroke-width="0.50" x1="501.1441" x2="629.9422" stroke="#48cae4" y1="400.0578"/><line y2="535.6971" stroke-width="0.50" x1="494.3029" x2="629.7123" stroke="#48cae4" y1="400.2877"/><line y2="542.4282" stroke-width="0.50" x1="487.5718" x2="629.3724" stroke="#48cae4" y1="400.6276"/><line y2="548.6395" stroke-width="0.50" x1="481.3605" x2="628.5127" stroke="#48cae4" y1="401.4873"/><line y2="554.7743" stroke-width="0.50" x1="475.2257" x2="627.5764" stroke="#48cae4" y1="402.4236"/><line y2="560.5176" stroke-width="0.50" x1="469.4824" x2="626.2486" stroke="#48cae4" y1="403.7514"/><line y2="566.1424" stroke-width="0.50" x1="463.8576" x2="624.8023" stroke="#48cae4" y1="405.1977"/><line y2="571.5193" stroke-width="0.50" x1="458.4807" x2="623.1082" stroke="#48cae4" y1="406.8918"/><line y2="638.4816" stroke-width="0.50" x1="391.5184" x2="428.4410" stroke="#48cae4" y1="601.5590"/><line y2="647.3824" stroke-width="0.50" x1="382.6176" x2="444.4128" stroke="#48cae4" y1="585.5872"/><line y2="652.3745" stroke-width="0.50" x1="377.6255" x2="456.4760" stroke="#48cae4" y1="573.5240"/><line y2="655.5351" stroke-width="0.50" x1="374.4649" x2="466.7077" stroke="#48cae4" y1="563.2923"/><line y2="657.6834" stroke-width="0.50" x1="372.3166" x2="475.9270" stroke="#48cae4" y1="554.0730"/><line y2="658.9570" stroke-width="0.50" x1="371.0430" x2="484.2716" stroke="#48cae4" y1="545.7284"/><line y2="659.5951" stroke-width="0.50" x1="370.4049" x2="491.9808" stroke="#48cae4" y1="538.0192"/><line y2="659.9711" stroke-width="0.50" x1="370.0289" x2="499.4279" stroke="#48cae4" y1="530.5721"/><line y2="659.6862" stroke-width="0.50" x1="370.3138" x2="506.2141" stroke="#48cae4" y1="523.7859"/><line y2="659.3463" stroke-width="0.50" x1="370.6537" x2="512.9453" stroke="#48cae4" y1="517.0547"/><line y2="658.4407" stroke-width="0.50" x1="371.5593" x2="519.1108" stroke="#48cae4" y1="510.8892"/><line y2="657.5045" stroke-width="0.50" x1="372.4955" x2="525.2456" stroke="#48cae4" y1="504.7544"/><line y2="656.1375" stroke-width="0.50" x1="373.8625" x2="530.9497" stroke="#48cae4" y1="499.0503"/><line y2="654.6912" stroke-width="0.50" x1="375.3088" x2="536.5744" stroke="#48cae4" y1="493.4256"/><line y2="652.9627" stroke-width="0.50" x1="377.0373" x2="541.9170" stroke="#48cae4" y1="488.0830"/><line y2="651.0681" stroke-width="0.50" x1="378.9319" x2="547.0934" stroke="#48cae4" y1="482.9066"/><line y2="649.0432" stroke-width="0.50" x1="380.9568" x2="552.1396" stroke="#48cae4" y1="477.8604"/><line y2="646.7443" stroke-width="0.50" x1="383.2557" x2="556.9118" stroke="#48cae4" y1="473.0882"/><line y2="644.4454" stroke-width="0.50" x1="385.5546" x2="561.6840" stroke="#48cae4" y1="468.3160"/><line y2="641.7952" stroke-width="0.50" x1="388.2048" x2="566.1048" stroke="#48cae4" y1="463.8952"/><line y2="639.1228" stroke-width="0.50" x1="390.8772" x2="570.5036" stroke="#48cae4" y1="459.4964"/><line y2="636.2725" stroke-width="0.50" x1="393.7275" x2="574.7243" stroke="#48cae4" y1="455.2757"/><line y2="633.2472" stroke-width="0.50" x1="396.7528" x2="578.7700" stroke="#48cae4" y1="451.2300"/><line y2="576.6958" stroke-width="0.50" x1="453.3042" x2="621.2136" stroke="#48cae4" y1="408.7864"/><line y2="581.7730" stroke-width="0.50" x1="448.2270" x2="619.2198" stroke="#48cae4" y1="410.7802"/><line y2="586.5452" stroke-width="0.50" x1="443.4548" x2="616.9209" stroke="#48cae4" y1="413.0791"/><line y2="591.3174" stroke-width="0.50" x1="438.6826" x2="614.6220" stroke="#48cae4" y1="415.3780"/><line y2="595.7669" stroke-width="0.50" x1="434.2331" x2="612.0004" stroke="#48cae4" y1="417.9996"/><line y2="600.1657" stroke-width="0.50" x1="429.8343" x2="609.3281" stroke="#48cae4" y1="420.6719"/><line y2="604.4135" stroke-width="0.50" x1="425.5865" x2="606.5049" stroke="#48cae4" y1="423.4951"/><line y2="608.4592" stroke-width="0.50" x1="421.5408" x2="603.4796" stroke="#48cae4" y1="426.5204"/><line y2="612.5050" stroke-width="0.50" x1="417.4950" x2="600.4542" stroke="#48cae4" y1="429.5458"/><line y2="616.2251" stroke-width="0.50" x1="413.7749" x2="597.1033" stroke="#48cae4" y1="432.8967"/><line y2="623.4779" stroke-width="0.50" x1="406.5221" x2="590.2140" stroke="#48cae4" y1="439.7860"/><line y2="630.2114" stroke-width="0.50" x1="399.7886" x2="582.8053" stroke="#48cae4" y1="447.1947"/><line y2="626.8447" stroke-width="0.50" x1="403.1553" x2="586.5097" stroke="#48cae4" y1="443.4903"/></g></svg>