<?xml version="1.0" encoding="UTF-8" standalone="no"?><svg xmlns="http://www.w3.org/2000/svg" xmlns:xlink="http://www.w3.org/1999/xlink" xmlns:inkscape="http://www.inkscape.org/namespaces/inkscape" contentScriptType="text/ecmascript" width="846.22px" zoomAndPan="magnify" contentStyleType="text/css" height="822.58px" viewBox="-28.46 -24.11 846.22 822.58" preserveAspectRatio="xMidYMid meet" version="1.0">
  <title>Test: Triangles</title>

  <!-- Equilateral triangles -->
  
  
  

  <!-- Right-angle triangles -->
  
  

  <!-- Isoceles triangle (tall) -->
  
  <!-- Isoceles triangle (wide) -->
  

  <!-- Large, centered triangle -->
  

  <!-- Small scattered triangles -->
  
  
  

  <!-- Outline-only triangle (complex path) -->
  
<g inkscape:label="Color #e63946" inkscape:groupmode="layer" id="layer_e63946"><polygon fill="none" stroke-width="0.5" points="200,560 380,680 20,680" stroke="#e63946"/><line y2="170.0000" stroke-width="0.50" x1="148.3268" x2="225.6497" stroke="#e63946" y1="92.6771"/><line y2="170.0000" stroke-width="0.50" x1="134.7286" x2="190.2944" stroke="#e63946" y1="114.4342"/><line y2="170.0000" stroke-width="0.50" x1="126.5697" x2="169.0812" stroke="#e63946" y1="127.4885"/><line y2="170.0000" stroke-width="0.50" x1="118.4108" x2="147.8680" stroke="#e63946" y1="140.5428"/><line y2="170.0000" stroke-width="0.50" x1="112.9715" x2="133.7258" stroke="#e63946" y1="149.2456"/><line y2="170.0000" stroke-width="0.50" x1="110.2518" x2="126.6548" stroke="#e63946" y1="153.5971"/><line y2="170.0000" stroke-width="0.50" x1="107.5322" x2="119.5837" stroke="#e63946" y1="157.9485"/><line y2="170.0000" stroke-width="0.50" x1="104.8125" x2="112.5126" stroke="#e63946" y1="162.2999"/><line y2="170.0000" stroke-width="0.50" x1="102.0929" x2="105.4416" stroke="#e63946" y1="166.6513"/><line y2="170.0000" stroke-width="0.50" x1="115.6911" x2="140.7969" stroke="#e63946" y1="144.8942"/><line y2="170.0000" stroke-width="0.50" x1="121.1304" x2="154.9390" stroke="#e63946" y1="136.1914"/><line y2="170.0000" stroke-width="0.50" x1="123.8500" x2="162.0101" stroke="#e63946" y1="131.8399"/><line y2="170.0000" stroke-width="0.50" x1="129.2893" x2="176.1522" stroke="#e63946" y1="123.1371"/><line y2="170.0000" stroke-width="0.50" x1="132.0090" x2="183.2233" stroke="#e63946" y1="118.7857"/><line y2="170.0000" stroke-width="0.50" x1="137.4482" x2="197.3654" stroke="#e63946" y1="110.0828"/><line y2="170.0000" stroke-width="0.50" x1="140.1679" x2="204.4365" stroke="#e63946" y1="105.7314"/><line y2="170.0000" stroke-width="0.50" x1="142.8875" x2="211.5076" stroke="#e63946" y1="101.3800"/><line y2="170.0000" stroke-width="0.50" x1="145.6072" x2="218.5786" stroke="#e63946" y1="97.0285"/><line y2="170.0000" stroke-width="0.50" x1="151.0465" x2="232.7208" stroke="#e63946" y1="88.3257"/><line y2="170.0000" stroke-width="0.50" x1="153.7661" x2="239.7918" stroke="#e63946" y1="83.9742"/><line y2="170.0000" stroke-width="0.50" x1="156.4857" x2="246.8629" stroke="#e63946" y1="79.6228"/><line y2="170.0000" stroke-width="0.50" x1="159.2054" x2="253.9340" stroke="#e63946" y1="75.2714"/><line y2="170.0000" stroke-width="0.50" x1="161.9250" x2="261.0051" stroke="#e63946" y1="70.9200"/><line y2="170.0000" stroke-width="0.50" x1="164.6447" x2="268.0761" stroke="#e63946" y1="66.5685"/><line y2="170.0000" stroke-width="0.50" x1="167.3643" x2="275.1472" stroke="#e63946" y1="62.2171"/><line y2="170.0000" stroke-width="0.50" x1="170.0839" x2="282.2183" stroke="#e63946" y1="57.8657"/><line y2="170.0000" stroke-width="0.50" x1="172.8036" x2="289.2893" stroke="#e63946" y1="53.5143"/><line y2="170.0000" stroke-width="0.50" x1="175.5232" x2="296.3604" stroke="#e63946" y1="49.1628"/><line y2="160.8494" stroke-width="0.50" x1="178.2429" x2="294.2809" stroke="#e63946" y1="44.8114"/><line y2="141.9933" stroke-width="0.50" x1="180.9625" x2="282.4958" stroke="#e63946" y1="40.4600"/><line y2="123.1371" stroke-width="0.50" x1="183.6822" x2="270.7107" stroke="#e63946" y1="36.1086"/><line y2="104.2809" stroke-width="0.50" x1="186.4018" x2="258.9256" stroke="#e63946" y1="31.7571"/><line y2="85.4247" stroke-width="0.50" x1="189.1214" x2="247.1405" stroke="#e63946" y1="27.4057"/><line y2="66.5685" stroke-width="0.50" x1="191.8411" x2="235.3553" stroke="#e63946" y1="23.0543"/><line y2="47.7124" stroke-width="0.50" x1="194.5607" x2="223.5702" stroke="#e63946" y1="18.7029"/><line y2="28.8562" stroke-width="0.50" x1="197.2804" x2="211.7851" stroke="#e63946" y1="14.3514"/></g><g inkscape:label="Color #457b9d" inkscape:groupmode="layer" id="layer_457b9d"><line y2="170.0000" stroke-width="0.50" x1="332.0929" x2="335.4416" stroke="#457b9d" y1="166.6513"/><line y2="170.0000" stroke-width="0.50" x1="334.8125" x2="342.5126" stroke="#457b9d" y1="162.2999"/><line y2="170.0000" stroke-width="0.50" x1="337.5322" x2="349.5837" stroke="#457b9d" y1="157.9485"/><line y2="170.0000" stroke-width="0.50" x1="340.2518" x2="356.6548" stroke="#457b9d" y1="153.5971"/><line y2="170.0000" stroke-width="0.50" x1="342.9715" x2="363.7258" stroke="#457b9d" y1="149.2456"/><line y2="170.0000" stroke-width="0.50" x1="345.6911" x2="370.7969" stroke="#457b9d" y1="144.8942"/><line y2="170.0000" stroke-width="0.50" x1="348.4108" x2="377.8680" stroke="#457b9d" y1="140.5428"/><line y2="170.0000" stroke-width="0.50" x1="351.1304" x2="384.9390" stroke="#457b9d" y1="136.1914"/><line y2="170.0000" stroke-width="0.50" x1="353.8500" x2="392.0101" stroke="#457b9d" y1="131.8399"/><line y2="170.0000" stroke-width="0.50" x1="356.5697" x2="399.0812" stroke="#457b9d" y1="127.4885"/><line y2="170.0000" stroke-width="0.50" x1="359.2893" x2="406.1522" stroke="#457b9d" y1="123.1371"/><line y2="170.0000" stroke-width="0.50" x1="362.0090" x2="413.2233" stroke="#457b9d" y1="118.7857"/><line y2="170.0000" stroke-width="0.50" x1="364.7286" x2="420.2944" stroke="#457b9d" y1="114.4342"/><line y2="170.0000" stroke-width="0.50" x1="367.4482" x2="427.3654" stroke="#457b9d" y1="110.0828"/><line y2="170.0000" stroke-width="0.50" x1="370.1679" x2="434.4365" stroke="#457b9d" y1="105.7314"/><line y2="170.0000" stroke-width="0.50" x1="372.8875" x2="441.5076" stroke="#457b9d" y1="101.3800"/><line y2="170.0000" stroke-width="0.50" x1="375.6072" x2="448.5786" stroke="#457b9d" y1="97.0285"/><line y2="170.0000" stroke-width="0.50" x1="378.3268" x2="455.6497" stroke="#457b9d" y1="92.6771"/><line y2="170.0000" stroke-width="0.50" x1="381.0465" x2="462.7208" stroke="#457b9d" y1="88.3257"/><line y2="170.0000" stroke-width="0.50" x1="383.7661" x2="469.7918" stroke="#457b9d" y1="83.9742"/><line y2="170.0000" stroke-width="0.50" x1="386.4857" x2="476.8629" stroke="#457b9d" y1="79.6228"/><line y2="170.0000" stroke-width="0.50" x1="389.2054" x2="483.9340" stroke="#457b9d" y1="75.2714"/><line y2="170.0000" stroke-width="0.50" x1="391.9250" x2="491.0051" stroke="#457b9d" y1="70.9200"/><line y2="170.0000" stroke-width="0.50" x1="394.6447" x2="498.0761" stroke="#457b9d" y1="66.5685"/><line y2="170.0000" stroke-width="0.50" x1="397.3643" x2="505.1472" stroke="#457b9d" y1="62.2171"/><line y2="170.0000" stroke-width="0.50" x1="400.0839" x2="512.2183" stroke="#457b9d" y1="57.8657"/><line y2="170.0000" stroke-width="0.50" x1="402.8036" x2="519.2893" stroke="#457b9d" y1="53.5143"/><line y2="170.0000" stroke-width="0.50" x1="405.5232" x2="526.3604" stroke="#457b9d" y1="49.1628"/><line y2="160.8494" stroke-width="0.50" x1="408.2429" x2="524.2809" stroke="#457b9d" y1="44.8114"/><line y2="141.9933" stroke-width="0.50" x1="410.9625" x2="512.4958" stroke="#457b9d" y1="40.4600"/><line y2="123.1371" stroke-width="0.50" x1="413.6822" x2="500.7107" stroke="#457b9d" y1="36.1086"/><line y2="104.2809" stroke-width="0.50" x1="416.4018" x2="488.9256" stroke="#457b9d" y1="31.7571"/><line y2="85.4247" stroke-width="0.50" x1="419.1214" x2="477.1405" stroke="#457b9d" y1="27.4057"/><line y2="66.5685" stroke-width="0.50" x1="421.8411" x2="465.3553" stroke="#457b9d" y1="23.0543"/><line y2="47.7124" stroke-width="0.50" x1="424.5607" x2="453.5702" stroke="#457b9d" y1="18.7029"/><line y2="28.8562" stroke-width="0.50" x1="427.2804" x2="441.7851" stroke="#457b9d" y1="14.3514"/></g><g inkscape:label="Color #2dc653" inkscape:groupmode="layer" id="layer_2dc653"><line y2="170.0000" stroke-width="0.50" x1="562.0929" x2="565.4416" stroke="#2dc653" y1="166.6513"/><line y2="170.0000" stroke-width="0.50" x1="564.8125" x2="572.5126" stroke="#2dc653" y1="162.2999"/><line y2="170.0000" stroke-width="0.50" x1="567.5322" x2="579.5837" stroke="#2dc653" y1="157.9485"/><line y2="170.0000" stroke-width="0.50" x1="570.2518" x2="586.6548" stroke="#2dc653" y1="153.5971"/><line y2="170.0000" stroke-width="0.50" x1="572.9715" x2="593.7258" stroke="#2dc653" y1="149.2456"/><line y2="170.0000" stroke-width="0.50" x1="575.6911" x2="600.7969" stroke="#2dc653" y1="144.8942"/><line y2="170.0000" stroke-width="0.50" x1="578.4108" x2="607.8680" stroke="#2dc653" y1="140.5428"/><line y2="170.0000" stroke-width="0.50" x1="581.1304" x2="614.9390" stroke="#2dc653" y1="136.1914"/><line y2="170.0000" stroke-width="0.50" x1="583.8500" x2="622.0101" stroke="#2dc653" y1="131.8399"/><line y2="170.0000" stroke-width="0.50" x1="586.5697" x2="629.0812" stroke="#2dc653" y1="127.4885"/><line y2="170.0000" stroke-width="0.50" x1="589.2893" x2="636.1522" stroke="#2dc653" y1="123.1371"/><line y2="170.0000" stroke-width="0.50" x1="592.0090" x2="643.2233" stroke="#2dc653" y1="118.7857"/><line y2="170.0000" stroke-width="0.50" x1="594.7286" x2="650.2944" stroke="#2dc653" y1="114.4342"/><line y2="170.0000" stroke-width="0.50" x1="597.4482" x2="657.3654" stroke="#2dc653" y1="110.0828"/><line y2="170.0000" stroke-width="0.50" x1="600.1679" x2="664.4365" stroke="#2dc653" y1="105.7314"/><line y2="170.0000" stroke-width="0.50" x1="602.8875" x2="671.5076" stroke="#2dc653" y1="101.3800"/><line y2="170.0000" stroke-width="0.50" x1="605.6072" x2="678.5786" stroke="#2dc653" y1="97.0285"/><line y2="170.0000" stroke-width="0.50" x1="608.3268" x2="685.6497" stroke="#2dc653" y1="92.6771"/><line y2="170.0000" stroke-width="0.50" x1="611.0465" x2="692.7208" stroke="#2dc653" y1="88.3257"/><line y2="170.0000" stroke-width="0.50" x1="613.7661" x2="699.7918" stroke="#2dc653" y1="83.9742"/><line y2="170.0000" stroke-width="0.50" x1="616.4857" x2="706.8629" stroke="#2dc653" y1="79.6228"/><line y2="170.0000" stroke-width="0.50" x1="619.2054" x2="713.9340" stroke="#2dc653" y1="75.2714"/><line y2="170.0000" stroke-width="0.50" x1="621.9250" x2="721.0051" stroke="#2dc653" y1="70.9200"/><line y2="170.0000" stroke-width="0.50" x1="624.6447" x2="728.0761" stroke="#2dc653" y1="66.5685"/><line y2="170.0000" stroke-width="0.50" x1="627.3643" x2="735.1472" stroke="#2dc653" y1="62.2171"/><line y2="170.0000" stroke-width="0.50" x1="630.0839" x2="742.2183" stroke="#2dc653" y1="57.8657"/><line y2="170.0000" stroke-width="0.50" x1="632.8036" x2="749.2893" stroke="#2dc653" y1="53.5143"/><line y2="170.0000" stroke-width="0.50" x1="635.5232" x2="756.3604" stroke="#2dc653" y1="49.1628"/><line y2="160.8494" stroke-width="0.50" x1="638.2429" x2="754.2809" stroke="#2dc653" y1="44.8114"/><line y2="141.9933" stroke-width="0.50" x1="640.9625" x2="742.4958" stroke="#2dc653" y1="40.4600"/><line y2="123.1371" stroke-width="0.50" x1="643.6822" x2="730.7107" stroke="#2dc653" y1="36.1086"/><line y2="104.2809" stroke-width="0.50" x1="646.4018" x2="718.9256" stroke="#2dc653" y1="31.7571"/><line y2="85.4247" stroke-width="0.50" x1="649.1214" x2="707.1405" stroke="#2dc653" y1="27.4057"/><line y2="66.5685" stroke-width="0.50" x1="651.8411" x2="695.3553" stroke="#2dc653" y1="23.0543"/><line y2="47.7124" stroke-width="0.50" x1="654.5607" x2="683.5702" stroke="#2dc653" y1="18.7029"/><line y2="28.8562" stroke-width="0.50" x1="657.2804" x2="671.7851" stroke="#2dc653" y1="14.3514"/></g><g inkscape:label="Color #f4a261" inkscape:groupmode="layer" id="layer_f4a261"><line y2="380.0000" stroke-width="0.50" x1="10.0000" x2="185.8579" stroke="#f4a261" y1="204.1421"/><line y2="380.0000" stroke-width="0.50" x1="65.6497" x2="192.9289" stroke="#f4a261" y1="252.7208"/><line y2="380.0000" stroke-width="0.50" x1="10.0000" x2="16.1522" stroke="#f4a261" y1="373.8478"/><line y2="380.0000" stroke-width="0.50" x1="10.0000" x2="23.2233" stroke="#f4a261" y1="366.7767"/><line y2="380.0000" stroke-width="0.50" x1="10.0000" x2="30.2944" stroke="#f4a261" y1="359.7056"/><line y2="380.0000" stroke-width="0.50" x1="10.0000" x2="37.3654" stroke="#f4a261" y1="352.6346"/><line y2="380.0000" stroke-width="0.50" x1="10.0000" x2="44.4365" stroke="#f4a261" y1="345.5635"/><line y2="380.0000" stroke-width="0.50" x1="10.0000" x2="51.5076" stroke="#f4a261" y1="338.4924"/><line y2="380.0000" stroke-width="0.50" x1="10.0000" x2="58.5786" stroke="#f4a261" y1="331.4214"/><line y2="380.0000" stroke-width="0.50" x1="10.0000" x2="65.6497" stroke="#f4a261" y1="324.3503"/><line y2="380.0000" stroke-width="0.50" x1="10.0000" x2="72.7208" stroke="#f4a261" y1="317.2792"/><line y2="380.0000" stroke-width="0.50" x1="10.0000" x2="79.7918" stroke="#f4a261" y1="310.2082"/><line y2="380.0000" stroke-width="0.50" x1="10.0000" x2="86.8629" stroke="#f4a261" y1="303.1371"/><line y2="380.0000" stroke-width="0.50" x1="10.0000" x2="93.9340" stroke="#f4a261" y1="296.0660"/><line y2="380.0000" stroke-width="0.50" x1="10.0000" x2="101.0051" stroke="#f4a261" y1="288.9949"/><line y2="380.0000" stroke-width="0.50" x1="10.0000" x2="108.0761" stroke="#f4a261" y1="281.9239"/><line y2="380.0000" stroke-width="0.50" x1="10.0000" x2="115.1472" stroke="#f4a261" y1="274.8528"/><line y2="380.0000" stroke-width="0.50" x1="10.0000" x2="122.2183" stroke="#f4a261" y1="267.7817"/><line y2="380.0000" stroke-width="0.50" x1="10.0000" x2="129.2893" stroke="#f4a261" y1="260.7107"/><line y2="380.0000" stroke-width="0.50" x1="10.0000" x2="136.3604" stroke="#f4a261" y1="253.6396"/><line y2="380.0000" stroke-width="0.50" x1="10.0000" x2="143.4315" stroke="#f4a261" y1="246.5685"/><line y2="380.0000" stroke-width="0.50" x1="10.0000" x2="150.5025" stroke="#f4a261" y1="239.4975"/><line y2="380.0000" stroke-width="0.50" x1="10.0000" x2="157.5736" stroke="#f4a261" y1="232.4264"/><line y2="380.0000" stroke-width="0.50" x1="10.0000" x2="164.6447" stroke="#f4a261" y1="225.3553"/><line y2="380.0000" stroke-width="0.50" x1="10.0000" x2="171.7157" stroke="#f4a261" y1="218.2843"/><line y2="380.0000" stroke-width="0.50" x1="10.0000" x2="178.7868" stroke="#f4a261" y1="211.2132"/></g><g inkscape:label="Color #9b5de5" inkscape:groupmode="layer" id="layer_9b5de5"><line y2="218.0909" stroke-width="0.50" x1="222.0101" x2="240.1010" stroke="#9b5de5" y1="200.0000"/><line y2="376.7767" stroke-width="0.50" x1="243.2233" x2="420.0000" stroke="#9b5de5" y1="200.0000"/><line y2="207.0711" stroke-width="0.50" x1="412.9289" x2="420.0000" stroke="#9b5de5" y1="200.0000"/><line y2="214.1421" stroke-width="0.50" x1="405.8579" x2="420.0000" stroke="#9b5de5" y1="200.0000"/><line y2="221.2132" stroke-width="0.50" x1="398.7868" x2="420.0000" stroke="#9b5de5" y1="200.0000"/><line y2="228.2843" stroke-width="0.50" x1="391.7157" x2="420.0000" stroke="#9b5de5" y1="200.0000"/><line y2="235.3553" stroke-width="0.50" x1="384.6447" x2="420.0000" stroke="#9b5de5" y1="200.0000"/><line y2="242.4264" stroke-width="0.50" x1="377.5736" x2="420.0000" stroke="#9b5de5" y1="200.0000"/><line y2="249.4975" stroke-width="0.50" x1="370.5025" x2="420.0000" stroke="#9b5de5" y1="200.0000"/><line y2="256.5685" stroke-width="0.50" x1="363.4315" x2="420.0000" stroke="#9b5de5" y1="200.0000"/><line y2="263.6396" stroke-width="0.50" x1="356.3604" x2="420.0000" stroke="#9b5de5" y1="200.0000"/><line y2="270.7107" stroke-width="0.50" x1="349.2893" x2="420.0000" stroke="#9b5de5" y1="200.0000"/><line y2="277.7817" stroke-width="0.50" x1="342.2183" x2="420.0000" stroke="#9b5de5" y1="200.0000"/><line y2="284.8528" stroke-width="0.50" x1="335.1472" x2="420.0000" stroke="#9b5de5" y1="200.0000"/><line y2="291.9239" stroke-width="0.50" x1="328.0761" x2="420.0000" stroke="#9b5de5" y1="200.0000"/><line y2="298.9949" stroke-width="0.50" x1="321.0051" x2="420.0000" stroke="#9b5de5" y1="200.0000"/><line y2="306.0660" stroke-width="0.50" x1="313.9340" x2="420.0000" stroke="#9b5de5" y1="200.0000"/><line y2="313.1371" stroke-width="0.50" x1="306.8629" x2="420.0000" stroke="#9b5de5" y1="200.0000"/><line y2="320.2082" stroke-width="0.50" x1="299.7918" x2="420.0000" stroke="#9b5de5" y1="200.0000"/><line y2="327.2792" stroke-width="0.50" x1="292.7208" x2="420.0000" stroke="#9b5de5" y1="200.0000"/><line y2="334.3503" stroke-width="0.50" x1="285.6497" x2="420.0000" stroke="#9b5de5" y1="200.0000"/><line y2="341.4214" stroke-width="0.50" x1="278.5786" x2="420.0000" stroke="#9b5de5" y1="200.0000"/><line y2="348.4924" stroke-width="0.50" x1="271.5076" x2="420.0000" stroke="#9b5de5" y1="200.0000"/><line y2="355.5635" stroke-width="0.50" x1="264.4365" x2="420.0000" stroke="#9b5de5" y1="200.0000"/><line y2="362.6346" stroke-width="0.50" x1="257.3654" x2="420.0000" stroke="#9b5de5" y1="200.0000"/><line y2="369.7056" stroke-width="0.50" x1="250.2944" x2="420.0000" stroke="#9b5de5" y1="200.0000"/><line y2="345.3701" stroke-width="0.50" x1="236.1522" x2="381.5224" stroke="#9b5de5" y1="200.0000"/><line y2="281.7305" stroke-width="0.50" x1="229.0812" x2="310.8117" stroke="#9b5de5" y1="200.0000"/></g><g inkscape:label="Color #f72585" inkscape:groupmode="layer" id="layer_f72585"><line y2="380.0000" stroke-width="0.50" x1="497.0685" x2="599.7918" stroke="#f72585" y1="277.2767"/><line y2="380.0000" stroke-width="0.50" x1="476.8655" x2="543.2233" stroke="#f72585" y1="313.6422"/><line y2="380.0000" stroke-width="0.50" x1="464.2386" x2="507.8680" stroke="#f72585" y1="336.3706"/><line y2="380.0000" stroke-width="0.50" x1="456.6624" x2="486.6548" stroke="#f72585" y1="350.0077"/><line y2="380.0000" stroke-width="0.50" x1="451.6117" x2="472.5126" stroke="#f72585" y1="359.0990"/><line y2="380.0000" stroke-width="0.50" x1="446.5609" x2="458.3705" stroke="#f72585" y1="368.1904"/><line y2="380.0000" stroke-width="0.50" x1="444.0355" x2="451.2994" stroke="#f72585" y1="372.7361"/><line y2="380.0000" stroke-width="0.50" x1="441.5101" x2="444.2284" stroke="#f72585" y1="377.2818"/><line y2="380.0000" stroke-width="0.50" x1="449.0863" x2="465.4416" stroke="#f72585" y1="363.6447"/><line y2="380.0000" stroke-width="0.50" x1="454.1370" x2="479.5837" stroke="#f72585" y1="354.5533"/><line y2="380.0000" stroke-width="0.50" x1="459.1878" x2="493.7258" stroke="#f72585" y1="345.4620"/><line y2="380.0000" stroke-width="0.50" x1="461.7132" x2="500.7969" stroke="#f72585" y1="340.9163"/><line y2="380.0000" stroke-width="0.50" x1="466.7639" x2="514.9390" stroke="#f72585" y1="331.8249"/><line y2="380.0000" stroke-width="0.50" x1="469.2893" x2="522.0101" stroke="#f72585" y1="327.2792"/><line y2="380.0000" stroke-width="0.50" x1="471.8147" x2="529.0812" stroke="#f72585" y1="322.7335"/><line y2="380.0000" stroke-width="0.50" x1="474.3401" x2="536.1522" stroke="#f72585" y1="318.1878"/><line y2="380.0000" stroke-width="0.50" x1="479.3908" x2="550.2944" stroke="#f72585" y1="309.0965"/><line y2="380.0000" stroke-width="0.50" x1="481.9162" x2="557.3654" stroke="#f72585" y1="304.5508"/><line y2="380.0000" stroke-width="0.50" x1="484.4416" x2="564.4365" stroke="#f72585" y1="300.0051"/><line y2="380.0000" stroke-width="0.50" x1="486.9670" x2="571.5076" stroke="#f72585" y1="295.4594"/><line y2="380.0000" stroke-width="0.50" x1="489.4924" x2="578.5786" stroke="#f72585" y1="290.9137"/><line y2="380.0000" stroke-width="0.50" x1="492.0178" x2="585.6497" stroke="#f72585" y1="286.3680"/><line y2="380.0000" stroke-width="0.50" x1="494.5431" x2="592.7208" stroke="#f72585" y1="281.8224"/><line y2="380.0000" stroke-width="0.50" x1="499.5939" x2="606.8629" stroke="#f72585" y1="272.7310"/><line y2="380.0000" stroke-width="0.50" x1="502.1193" x2="613.9340" stroke="#f72585" y1="268.1853"/><line y2="380.0000" stroke-width="0.50" x1="504.6447" x2="621.0051" stroke="#f72585" y1="263.6396"/><line y2="380.0000" stroke-width="0.50" x1="507.1700" x2="628.0761" stroke="#f72585" y1="259.0939"/><line y2="380.0000" stroke-width="0.50" x1="509.6954" x2="635.1472" stroke="#f72585" y1="254.5482"/><line y2="375.0089" stroke-width="0.50" x1="512.2208" x2="637.2272" stroke="#f72585" y1="250.0026"/><line y2="359.0990" stroke-width="0.50" x1="514.7462" x2="628.3883" stroke="#f72585" y1="245.4569"/><line y2="343.1891" stroke-width="0.50" x1="517.2716" x2="619.5495" stroke="#f72585" y1="240.9112"/><line y2="327.2792" stroke-width="0.50" x1="519.7969" x2="610.7107" stroke="#f72585" y1="236.3655"/><line y2="311.3693" stroke-width="0.50" x1="522.3223" x2="601.8718" stroke="#f72585" y1="231.8198"/><line y2="295.4594" stroke-width="0.50" x1="524.8477" x2="593.0330" stroke="#f72585" y1="227.2741"/><line y2="279.5495" stroke-width="0.50" x1="527.3731" x2="584.1942" stroke="#f72585" y1="222.7284"/><line y2="263.6396" stroke-width="0.50" x1="529.8985" x2="575.3553" stroke="#f72585" y1="218.1827"/><line y2="247.7297" stroke-width="0.50" x1="532.4239" x2="566.5165" stroke="#f72585" y1="213.6371"/><line y2="231.8198" stroke-width="0.50" x1="534.9492" x2="557.6777" stroke="#f72585" y1="209.0914"/><line y2="215.9099" stroke-width="0.50" x1="537.4746" x2="548.8388" stroke="#f72585" y1="204.5457"/></g><g inkscape:label="Color #0077b6" inkscape:groupmode="layer" id="layer_0077b6"><line y2="375.6812" stroke-width="0.50" x1="403.5177" x2="579.1989" stroke="#0077b6" y1="200.0000"/><line y2="379.2665" stroke-width="0.50" x1="524.3687" x2="575.7131" stroke="#0077b6" y1="327.9221"/><line y2="289.6333" stroke-width="0.50" x1="573.2233" x2="662.8566" stroke="#0077b6" y1="200.0000"/><line y2="243.0240" stroke-width="0.50" x1="665.1472" x2="708.1711" stroke="#0077b6" y1="200.0000"/><line y2="221.5120" stroke-width="0.50" x1="707.5736" x2="729.0856" stroke="#0077b6" y1="200.0000"/><line y2="210.7560" stroke-width="0.50" x1="728.7868" x2="739.5428" stroke="#0077b6" y1="200.0000"/><line y2="203.5853" stroke-width="0.50" x1="742.9289" x2="746.5143" stroke="#0077b6" y1="200.0000"/><line y2="207.1707" stroke-width="0.50" x1="735.8579" x2="743.0285" stroke="#0077b6" y1="200.0000"/><line y2="214.3413" stroke-width="0.50" x1="721.7157" x2="736.0570" stroke="#0077b6" y1="200.0000"/><line y2="217.9267" stroke-width="0.50" x1="714.6447" x2="732.5713" stroke="#0077b6" y1="200.0000"/><line y2="225.0973" stroke-width="0.50" x1="700.5025" x2="725.5998" stroke="#0077b6" y1="200.0000"/><line y2="228.6826" stroke-width="0.50" x1="693.4315" x2="722.1141" stroke="#0077b6" y1="200.0000"/><line y2="232.2680" stroke-width="0.50" x1="686.3604" x2="718.6284" stroke="#0077b6" y1="200.0000"/><line y2="235.8533" stroke-width="0.50" x1="679.2893" x2="715.1426" stroke="#0077b6" y1="200.0000"/><line y2="239.4386" stroke-width="0.50" x1="672.2183" x2="711.6569" stroke="#0077b6" y1="200.0000"/><line y2="246.6093" stroke-width="0.50" x1="658.0761" x2="704.6854" stroke="#0077b6" y1="200.0000"/><line y2="250.1946" stroke-width="0.50" x1="651.0051" x2="701.1997" stroke="#0077b6" y1="200.0000"/><line y2="253.7800" stroke-width="0.50" x1="643.9340" x2="697.7139" stroke="#0077b6" y1="200.0000"/><line y2="257.3653" stroke-width="0.50" x1="636.8629" x2="694.2282" stroke="#0077b6" y1="200.0000"/><line y2="260.9506" stroke-width="0.50" x1="629.7918" x2="690.7425" stroke="#0077b6" y1="200.0000"/><line y2="264.5359" stroke-width="0.50" x1="622.7208" x2="687.2567" stroke="#0077b6" y1="200.0000"/><line y2="268.1213" stroke-width="0.50" x1="615.6497" x2="683.7710" stroke="#0077b6" y1="200.0000"/><line y2="271.7066" stroke-width="0.50" x1="608.5786" x2="680.2852" stroke="#0077b6" y1="200.0000"/><line y2="275.2919" stroke-width="0.50" x1="601.5076" x2="676.7995" stroke="#0077b6" y1="200.0000"/><line y2="278.8773" stroke-width="0.50" x1="594.4365" x2="673.3138" stroke="#0077b6" y1="200.0000"/><line y2="282.4626" stroke-width="0.50" x1="587.3654" x2="669.8280" stroke="#0077b6" y1="200.0000"/><line y2="286.0479" stroke-width="0.50" x1="580.2944" x2="666.3423" stroke="#0077b6" y1="200.0000"/><line y2="293.2186" stroke-width="0.50" x1="566.1522" x2="659.3708" stroke="#0077b6" y1="200.0000"/><line y2="296.8039" stroke-width="0.50" x1="559.0812" x2="655.8851" stroke="#0077b6" y1="200.0000"/><line y2="300.3892" stroke-width="0.50" x1="552.0101" x2="652.3993" stroke="#0077b6" y1="200.0000"/><line y2="303.9746" stroke-width="0.50" x1="544.9390" x2="648.9136" stroke="#0077b6" y1="200.0000"/><line y2="307.5599" stroke-width="0.50" x1="537.8680" x2="645.4279" stroke="#0077b6" y1="200.0000"/><line y2="311.1452" stroke-width="0.50" x1="530.7969" x2="641.9421" stroke="#0077b6" y1="200.0000"/><line y2="314.7306" stroke-width="0.50" x1="523.7258" x2="638.4564" stroke="#0077b6" y1="200.0000"/><line y2="318.3159" stroke-width="0.50" x1="516.6548" x2="634.9707" stroke="#0077b6" y1="200.0000"/><line y2="321.9012" stroke-width="0.50" x1="509.5837" x2="631.4849" stroke="#0077b6" y1="200.0000"/><line y2="325.4866" stroke-width="0.50" x1="502.5126" x2="627.9992" stroke="#0077b6" y1="200.0000"/><line y2="329.0719" stroke-width="0.50" x1="495.4416" x2="624.5134" stroke="#0077b6" y1="200.0000"/><line y2="332.6572" stroke-width="0.50" x1="488.3705" x2="621.0277" stroke="#0077b6" y1="200.0000"/><line y2="336.2425" stroke-width="0.50" x1="481.2994" x2="617.5420" stroke="#0077b6" y1="200.0000"/><line y2="339.8279" stroke-width="0.50" x1="474.2284" x2="614.0562" stroke="#0077b6" y1="200.0000"/><line y2="343.4132" stroke-width="0.50" x1="467.1573" x2="610.5705" stroke="#0077b6" y1="200.0000"/><line y2="346.9985" stroke-width="0.50" x1="460.0862" x2="607.0848" stroke="#0077b6" y1="200.0000"/><line y2="350.5839" stroke-width="0.50" x1="453.0152" x2="603.5990" stroke="#0077b6" y1="200.0000"/><line y2="354.1692" stroke-width="0.50" x1="445.9441" x2="600.1133" stroke="#0077b6" y1="200.0000"/><line y2="357.7545" stroke-width="0.50" x1="438.8730" x2="596.6275" stroke="#0077b6" y1="200.0000"/><line y2="361.3399" stroke-width="0.50" x1="431.8019" x2="593.1418" stroke="#0077b6" y1="200.0000"/><line y2="364.9252" stroke-width="0.50" x1="424.7309" x2="589.6561" stroke="#0077b6" y1="200.0000"/><line y2="368.5105" stroke-width="0.50" x1="417.6598" x2="586.1703" stroke="#0077b6" y1="200.0000"/><line y2="372.0958" stroke-width="0.50" x1="410.5887" x2="582.6846" stroke="#0077b6" y1="200.0000"/></g><g inkscape:label="Color #ffb703" inkscape:groupmode="layer" id="layer_ffb703"><line y2="463.6396" stroke-width="0.50" x1="396.6724" x2="456.5685" stroke="#ffb703" y1="403.7435"/><line y2="527.2792" stroke-width="0.50" x1="393.3449" x2="513.1371" stroke="#ffb703" y1="407.4870"/><line y2="654.5584" stroke-width="0.50" x1="386.6898" x2="626.2742" stroke="#ffb703" y1="414.9740"/><line y2="760.0000" stroke-width="0.50" x1="373.3795" x2="703.4315" stroke="#ffb703" y1="429.9481"/><line y2="760.0000" stroke-width="0.50" x1="356.7417" x2="668.0761" stroke="#ffb703" y1="448.6656"/><line y2="760.0000" stroke-width="0.50" x1="340.1039" x2="632.7208" stroke="#ffb703" y1="467.3831"/><line y2="760.0000" stroke-width="0.50" x1="323.4661" x2="597.3654" stroke="#ffb703" y1="486.1006"/><line y2="760.0000" stroke-width="0.50" x1="306.8283" x2="562.0101" stroke="#ffb703" y1="504.8182"/><line y2="760.0000" stroke-width="0.50" x1="293.5180" x2="533.7258" stroke="#ffb703" y1="519.7922"/><line y2="760.0000" stroke-width="0.50" x1="280.2078" x2="505.4416" stroke="#ffb703" y1="534.7662"/><line y2="760.0000" stroke-width="0.50" x1="266.8975" x2="477.1573" stroke="#ffb703" y1="549.7403"/><line y2="760.0000" stroke-width="0.50" x1="256.9149" x2="455.9441" stroke="#ffb703" y1="560.9708"/><line y2="760.0000" stroke-width="0.50" x1="246.9322" x2="434.7309" stroke="#ffb703" y1="572.2013"/><line y2="760.0000" stroke-width="0.50" x1="236.9495" x2="413.5177" stroke="#ffb703" y1="583.4318"/><line y2="760.0000" stroke-width="0.50" x1="226.9668" x2="392.3045" stroke="#ffb703" y1="594.6623"/><line y2="760.0000" stroke-width="0.50" x1="216.9841" x2="371.0913" stroke="#ffb703" y1="605.8929"/><line y2="760.0000" stroke-width="0.50" x1="207.0014" x2="349.8781" stroke="#ffb703" y1="617.1234"/><line y2="760.0000" stroke-width="0.50" x1="200.3463" x2="335.7359" stroke="#ffb703" y1="624.6104"/><line y2="760.0000" stroke-width="0.50" x1="193.6912" x2="321.5938" stroke="#ffb703" y1="632.0974"/><line y2="760.0000" stroke-width="0.50" x1="187.0361" x2="307.4517" stroke="#ffb703" y1="639.5844"/><line y2="760.0000" stroke-width="0.50" x1="180.3810" x2="293.3095" stroke="#ffb703" y1="647.0714"/><line y2="760.0000" stroke-width="0.50" x1="173.7258" x2="279.1674" stroke="#ffb703" y1="654.5584"/><line y2="760.0000" stroke-width="0.50" x1="167.0707" x2="265.0253" stroke="#ffb703" y1="662.0455"/><line y2="760.0000" stroke-width="0.50" x1="160.4156" x2="250.8831" stroke="#ffb703" y1="669.5325"/><line y2="760.0000" stroke-width="0.50" x1="153.7605" x2="236.7410" stroke="#ffb703" y1="677.0195"/><line y2="760.0000" stroke-width="0.50" x1="150.4329" x2="229.6699" stroke="#ffb703" y1="680.7630"/><line y2="760.0000" stroke-width="0.50" x1="147.1053" x2="222.5988" stroke="#ffb703" y1="684.5065"/><line y2="760.0000" stroke-width="0.50" x1="143.7778" x2="215.5278" stroke="#ffb703" y1="688.2500"/><line y2="760.0000" stroke-width="0.50" x1="140.4502" x2="208.4567" stroke="#ffb703" y1="691.9935"/><line y2="760.0000" stroke-width="0.50" x1="137.1227" x2="201.3856" stroke="#ffb703" y1="695.7370"/><line y2="760.0000" stroke-width="0.50" x1="133.7951" x2="194.3146" stroke="#ffb703" y1="699.4805"/><line y2="760.0000" stroke-width="0.50" x1="130.4675" x2="187.2435" stroke="#ffb703" y1="703.2240"/><line y2="760.0000" stroke-width="0.50" x1="127.1400" x2="180.1724" stroke="#ffb703" y1="706.9675"/><line y2="760.0000" stroke-width="0.50" x1="123.8124" x2="173.1014" stroke="#ffb703" y1="710.7110"/><line y2="760.0000" stroke-width="0.50" x1="120.4848" x2="166.0303" stroke="#ffb703" y1="714.4545"/><line y2="760.0000" stroke-width="0.50" x1="117.1573" x2="158.9592" stroke="#ffb703" y1="718.1981"/><line y2="760.0000" stroke-width="0.50" x1="113.8297" x2="151.8882" stroke="#ffb703" y1="721.9416"/><line y2="760.0000" stroke-width="0.50" x1="110.5022" x2="144.8171" stroke="#ffb703" y1="725.6851"/><line y2="760.0000" stroke-width="0.50" x1="107.1746" x2="137.7460" stroke="#ffb703" y1="729.4286"/><line y2="760.0000" stroke-width="0.50" x1="103.8470" x2="130.6750" stroke="#ffb703" y1="733.1721"/><line y2="760.0000" stroke-width="0.50" x1="100.5195" x2="123.6039" stroke="#ffb703" y1="736.9156"/><line y2="760.0000" stroke-width="0.50" x1="97.1919" x2="116.5328" stroke="#ffb703" y1="740.6591"/><line y2="760.0000" stroke-width="0.50" x1="93.8644" x2="109.4618" stroke="#ffb703" y1="744.4026"/><line y2="760.0000" stroke-width="0.50" x1="90.5368" x2="102.3907" stroke="#ffb703" y1="748.1461"/><line y2="760.0000" stroke-width="0.50" x1="87.2092" x2="95.3196" stroke="#ffb703" y1="751.8896"/><line y2="760.0000" stroke-width="0.50" x1="83.8817" x2="88.2486" stroke="#ffb703" y1="755.6331"/><line y2="760.0000" stroke-width="0.50" x1="80.5541" x2="81.1775" stroke="#ffb703" y1="759.3766"/><line y2="760.0000" stroke-width="0.50" x1="157.0880" x2="243.8120" stroke="#ffb703" y1="673.2760"/><line y2="760.0000" stroke-width="0.50" x1="163.7431" x2="257.9542" stroke="#ffb703" y1="665.7890"/><line y2="760.0000" stroke-width="0.50" x1="170.3983" x2="272.0963" stroke="#ffb703" y1="658.3019"/><line y2="760.0000" stroke-width="0.50" x1="177.0534" x2="286.2385" stroke="#ffb703" y1="650.8149"/><line y2="760.0000" stroke-width="0.50" x1="183.7085" x2="300.3806" stroke="#ffb703" y1="643.3279"/><line y2="760.0000" stroke-width="0.50" x1="190.3636" x2="314.5227" stroke="#ffb703" y1="635.8409"/><line y2="760.0000" stroke-width="0.50" x1="197.0188" x2="328.6649" stroke="#ffb703" y1="628.3539"/><line y2="760.0000" stroke-width="0.50" x1="203.6739" x2="342.8070" stroke="#ffb703" y1="620.8669"/><line y2="760.0000" stroke-width="0.50" x1="210.3290" x2="356.9491" stroke="#ffb703" y1="613.3799"/><line y2="760.0000" stroke-width="0.50" x1="213.6566" x2="364.0202" stroke="#ffb703" y1="609.6364"/><line y2="760.0000" stroke-width="0.50" x1="220.3117" x2="378.1623" stroke="#ffb703" y1="602.1494"/><line y2="760.0000" stroke-width="0.50" x1="223.6392" x2="385.2334" stroke="#ffb703" y1="598.4058"/><line y2="760.0000" stroke-width="0.50" x1="230.2944" x2="399.3755" stroke="#ffb703" y1="590.9188"/><line y2="760.0000" stroke-width="0.50" x1="233.6219" x2="406.4466" stroke="#ffb703" y1="587.1753"/><line y2="760.0000" stroke-width="0.50" x1="240.2771" x2="420.5887" stroke="#ffb703" y1="579.6883"/><line y2="760.0000" stroke-width="0.50" x1="243.6046" x2="427.6598" stroke="#ffb703" y1="575.9448"/><line y2="760.0000" stroke-width="0.50" x1="250.2597" x2="441.8019" stroke="#ffb703" y1="568.4578"/><line y2="760.0000" stroke-width="0.50" x1="253.5873" x2="448.8730" stroke="#ffb703" y1="564.7143"/><line y2="760.0000" stroke-width="0.50" x1="260.2424" x2="463.0152" stroke="#ffb703" y1="557.2273"/><line y2="760.0000" stroke-width="0.50" x1="263.5700" x2="470.0862" stroke="#ffb703" y1="553.4838"/><line y2="760.0000" stroke-width="0.50" x1="270.2251" x2="484.2284" stroke="#ffb703" y1="545.9968"/><line y2="760.0000" stroke-width="0.50" x1="273.5527" x2="491.2994" stroke="#ffb703" y1="542.2532"/><line y2="760.0000" stroke-width="0.50" x1="276.8802" x2="498.3705" stroke="#ffb703" y1="538.5097"/><line y2="760.0000" stroke-width="0.50" x1="283.5354" x2="512.5126" stroke="#ffb703" y1="531.0227"/><line y2="760.0000" stroke-width="0.50" x1="286.8629" x2="519.5837" stroke="#ffb703" y1="527.2792"/><line y2="760.0000" stroke-width="0.50" x1="290.1905" x2="526.6548" stroke="#ffb703" y1="523.5357"/><line y2="760.0000" stroke-width="0.50" x1="296.8456" x2="540.7969" stroke="#ffb703" y1="516.0487"/><line y2="760.0000" stroke-width="0.50" x1="300.1732" x2="547.8680" stroke="#ffb703" y1="512.3052"/><line y2="760.0000" stroke-width="0.50" x1="303.5007" x2="554.9390" stroke="#ffb703" y1="508.5617"/><line y2="760.0000" stroke-width="0.50" x1="310.1558" x2="569.0812" stroke="#ffb703" y1="501.0747"/><line y2="760.0000" stroke-width="0.50" x1="313.4834" x2="576.1522" stroke="#ffb703" y1="497.3312"/><line y2="760.0000" stroke-width="0.50" x1="316.8110" x2="583.2233" stroke="#ffb703" y1="493.5877"/><line y2="760.0000" stroke-width="0.50" x1="320.1385" x2="590.2944" stroke="#ffb703" y1="489.8442"/><line y2="760.0000" stroke-width="0.50" x1="326.7937" x2="604.4365" stroke="#ffb703" y1="482.3571"/><line y2="760.0000" stroke-width="0.50" x1="330.1212" x2="611.5076" stroke="#ffb703" y1="478.6136"/><line y2="760.0000" stroke-width="0.50" x1="333.4488" x2="618.5786" stroke="#ffb703" y1="474.8701"/><line y2="760.0000" stroke-width="0.50" x1="336.7763" x2="625.6497" stroke="#ffb703" y1="471.1266"/><line y2="760.0000" stroke-width="0.50" x1="343.4315" x2="639.7918" stroke="#ffb703" y1="463.6396"/><line y2="760.0000" stroke-width="0.50" x1="346.7590" x2="646.8629" stroke="#ffb703" y1="459.8961"/><line y2="760.0000" stroke-width="0.50" x1="350.0866" x2="653.9340" stroke="#ffb703" y1="456.1526"/><line y2="760.0000" stroke-width="0.50" x1="353.4141" x2="661.0051" stroke="#ffb703" y1="452.4091"/><line y2="760.0000" stroke-width="0.50" x1="360.0693" x2="675.1472" stroke="#ffb703" y1="444.9221"/><line y2="760.0000" stroke-width="0.50" x1="363.3968" x2="682.2183" stroke="#ffb703" y1="441.1786"/><line y2="760.0000" stroke-width="0.50" x1="366.7244" x2="689.2893" stroke="#ffb703" y1="437.4351"/><line y2="760.0000" stroke-width="0.50" x1="370.0519" x2="696.3604" stroke="#ffb703" y1="433.6916"/><line y2="760.0000" stroke-width="0.50" x1="376.7071" x2="710.5025" stroke="#ffb703" y1="426.2045"/><line y2="760.0000" stroke-width="0.50" x1="380.0346" x2="717.5736" stroke="#ffb703" y1="422.4610"/><line y2="718.1981" stroke-width="0.50" x1="383.3622" x2="682.8427" stroke="#ffb703" y1="418.7175"/><line y2="590.9188" stroke-width="0.50" x1="390.0173" x2="569.7056" stroke="#ffb703" y1="411.2305"/></g><g inkscape:label="Color #606c38" inkscape:groupmode="layer" id="layer_606c38"><line y2="495.9966" stroke-width="0.50" x1="31.0051" x2="97.0017" stroke="#606c38" y1="430.0000"/><line y2="524.2809" stroke-width="0.50" x1="71.4214" x2="82.8595" stroke="#606c38" y1="512.8427"/><line y2="528.9949" stroke-width="0.50" x1="78.4924" x2="80.5025" stroke="#606c38" y1="526.9848"/><line y2="519.5669" stroke-width="0.50" x1="64.3503" x2="85.2166" stroke="#606c38" y1="498.7006"/><line y2="514.8528" stroke-width="0.50" x1="57.2792" x2="87.5736" stroke="#606c38" y1="484.5584"/><line y2="510.1388" stroke-width="0.50" x1="50.2082" x2="89.9306" stroke="#606c38" y1="470.4163"/><line y2="505.4247" stroke-width="0.50" x1="43.1371" x2="92.2876" stroke="#606c38" y1="456.2742"/><line y2="453.5702" stroke-width="0.50" x1="94.6447" x2="118.2149" stroke="#606c38" y1="430.0000"/><line y2="439.4281" stroke-width="0.50" x1="115.8579" x2="125.2860" stroke="#606c38" y1="430.0000"/><line y2="434.7140" stroke-width="0.50" x1="122.9289" x2="127.6430" stroke="#606c38" y1="430.0000"/><line y2="444.1421" stroke-width="0.50" x1="108.7868" x2="122.9289" stroke="#606c38" y1="430.0000"/><line y2="448.8562" stroke-width="0.50" x1="101.7157" x2="120.5719" stroke="#606c38" y1="430.0000"/><line y2="458.2843" stroke-width="0.50" x1="87.5736" x2="115.8579" stroke="#606c38" y1="430.0000"/><line y2="462.9983" stroke-width="0.50" x1="80.5025" x2="113.5008" stroke="#606c38" y1="430.0000"/><line y2="467.7124" stroke-width="0.50" x1="73.4315" x2="111.1438" stroke="#606c38" y1="430.0000"/><line y2="472.4264" stroke-width="0.50" x1="66.3604" x2="108.7868" stroke="#606c38" y1="430.0000"/><line y2="477.1405" stroke-width="0.50" x1="59.2893" x2="106.4298" stroke="#606c38" y1="430.0000"/><line y2="481.8545" stroke-width="0.50" x1="52.2183" x2="104.0728" stroke="#606c38" y1="430.0000"/><line y2="486.5685" stroke-width="0.50" x1="45.1472" x2="101.7157" stroke="#606c38" y1="430.0000"/><line y2="500.7107" stroke-width="0.50" x1="36.0660" x2="94.6447" stroke="#606c38" y1="442.1320"/><line y2="491.2826" stroke-width="0.50" x1="38.0761" x2="99.3587" stroke="#606c38" y1="430.0000"/></g><g inkscape:label="Color #d62828" inkscape:groupmode="layer" id="layer_d62828"><line y2="438.3848" stroke-width="0.50" x1="647.3063" x2="661.3137" stroke="#d62828" y1="424.3773"/><line y2="456.7696" stroke-width="0.50" x1="644.6125" x2="672.6274" stroke="#d62828" y1="428.7547"/><line y2="493.5391" stroke-width="0.50" x1="639.2250" x2="695.2548" stroke="#d62828" y1="437.5093"/><line y2="550.0000" stroke-width="0.50" x1="628.4501" x2="723.4315" stroke="#d62828" y1="455.0186"/><line y2="550.0000" stroke-width="0.50" x1="612.2876" x2="681.0051" stroke="#d62828" y1="481.2826"/><line y2="550.0000" stroke-width="0.50" x1="601.5127" x2="652.7208" stroke="#d62828" y1="498.7919"/><line y2="550.0000" stroke-width="0.50" x1="593.4315" x2="631.5076" stroke="#d62828" y1="511.9239"/><line y2="550.0000" stroke-width="0.50" x1="588.0440" x2="617.3654" stroke="#d62828" y1="520.6785"/><line y2="550.0000" stroke-width="0.50" x1="582.6565" x2="603.2233" stroke="#d62828" y1="529.4332"/><line y2="550.0000" stroke-width="0.50" x1="579.9628" x2="596.1522" stroke="#d62828" y1="533.8105"/><line y2="550.0000" stroke-width="0.50" x1="577.2690" x2="589.0812" stroke="#d62828" y1="538.1878"/><line y2="550.0000" stroke-width="0.50" x1="574.5753" x2="582.0101" stroke="#d62828" y1="542.5652"/><line y2="550.0000" stroke-width="0.50" x1="571.8815" x2="574.9390" stroke="#d62828" y1="546.9425"/><line y2="550.0000" stroke-width="0.50" x1="585.3502" x2="610.2944" stroke="#d62828" y1="525.0559"/><line y2="550.0000" stroke-width="0.50" x1="590.7377" x2="624.4365" stroke="#d62828" y1="516.3012"/><line y2="550.0000" stroke-width="0.50" x1="596.1252" x2="638.5786" stroke="#d62828" y1="507.5466"/><line y2="550.0000" stroke-width="0.50" x1="598.8189" x2="645.6497" stroke="#d62828" y1="503.1692"/><line y2="550.0000" stroke-width="0.50" x1="604.2064" x2="659.7918" stroke="#d62828" y1="494.4146"/><line y2="550.0000" stroke-width="0.50" x1="606.9002" x2="666.8629" stroke="#d62828" y1="490.0372"/><line y2="550.0000" stroke-width="0.50" x1="609.5939" x2="673.9340" stroke="#d62828" y1="485.6599"/><line y2="550.0000" stroke-width="0.50" x1="614.9814" x2="688.0761" stroke="#d62828" y1="476.9053"/><line y2="550.0000" stroke-width="0.50" x1="617.6751" x2="695.1472" stroke="#d62828" y1="472.5279"/><line y2="550.0000" stroke-width="0.50" x1="620.3689" x2="702.2183" stroke="#d62828" y1="468.1506"/><line y2="550.0000" stroke-width="0.50" x1="623.0626" x2="709.2893" stroke="#d62828" y1="463.7733"/><line y2="550.0000" stroke-width="0.50" x1="625.7563" x2="716.3604" stroke="#d62828" y1="459.3959"/><line y2="548.6934" stroke-width="0.50" x1="631.1438" x2="729.1960" stroke="#d62828" y1="450.6413"/><line y2="530.3087" stroke-width="0.50" x1="633.8376" x2="717.8823" stroke="#d62828" y1="446.2640"/><line y2="511.9239" stroke-width="0.50" x1="636.5313" x2="706.5685" stroke="#d62828" y1="441.8866"/><line y2="475.1543" stroke-width="0.50" x1="641.9188" x2="683.9411" stroke="#d62828" y1="433.1320"/></g><g inkscape:label="Color #48cae4" inkscape:groupmode="layer" id="layer_48cae4"><line y2="415.1523" stroke-width="0.50" x1="697.5405" x2="708.0812" stroke="#48cae4" y1="404.6116"/><line y2="430.3046" stroke-width="0.50" x1="695.0810" x2="716.1624" stroke="#48cae4" y1="409.2231"/><line y2="460.6092" stroke-width="0.50" x1="690.1620" x2="732.3249" stroke="#48cae4" y1="418.4463"/><line y2="506.0660" stroke-width="0.50" x1="682.7835" x2="756.5685" stroke="#48cae4" y1="432.2810"/><line y2="550.0000" stroke-width="0.50" x1="668.0265" x2="758.0761" stroke="#48cae4" y1="459.9504"/><line y2="550.0000" stroke-width="0.50" x1="650.8100" x2="708.5786" stroke="#48cae4" y1="492.2313"/><line y2="550.0000" stroke-width="0.50" x1="638.5125" x2="673.2233" stroke="#48cae4" y1="515.2891"/><line y2="550.0000" stroke-width="0.50" x1="631.1339" x2="652.0101" stroke="#48cae4" y1="529.1238"/><line y2="550.0000" stroke-width="0.50" x1="626.2149" x2="637.8680" stroke="#48cae4" y1="538.3470"/><line y2="550.0000" stroke-width="0.50" x1="623.7554" x2="630.7969" stroke="#48cae4" y1="542.9585"/><line y2="550.0000" stroke-width="0.50" x1="621.2959" x2="623.7258" stroke="#48cae4" y1="547.5701"/><line y2="550.0000" stroke-width="0.50" x1="628.6744" x2="644.9390" stroke="#48cae4" y1="533.7354"/><line y2="550.0000" stroke-width="0.50" x1="633.5935" x2="659.0812" stroke="#48cae4" y1="524.5123"/><line y2="550.0000" stroke-width="0.50" x1="636.0530" x2="666.1522" stroke="#48cae4" y1="519.9007"/><line y2="550.0000" stroke-width="0.50" x1="640.9720" x2="680.2944" stroke="#48cae4" y1="510.6776"/><line y2="550.0000" stroke-width="0.50" x1="643.4315" x2="687.3654" stroke="#48cae4" y1="506.0660"/><line y2="550.0000" stroke-width="0.50" x1="645.8910" x2="694.4365" stroke="#48cae4" y1="501.4545"/><line y2="550.0000" stroke-width="0.50" x1="648.3505" x2="701.5076" stroke="#48cae4" y1="496.8429"/><line y2="550.0000" stroke-width="0.50" x1="653.2695" x2="715.6497" stroke="#48cae4" y1="487.6198"/><line y2="550.0000" stroke-width="0.50" x1="655.7290" x2="722.7208" stroke="#48cae4" y1="483.0082"/><line y2="550.0000" stroke-width="0.50" x1="658.1885" x2="729.7918" stroke="#48cae4" y1="478.3966"/><line y2="550.0000" stroke-width="0.50" x1="660.6480" x2="736.8629" stroke="#48cae4" y1="473.7851"/><line y2="550.0000" stroke-width="0.50" x1="663.1075" x2="743.9340" stroke="#48cae4" y1="469.1735"/><line y2="550.0000" stroke-width="0.50" x1="665.5670" x2="751.0051" stroke="#48cae4" y1="464.5619"/><line y2="550.0000" stroke-width="0.50" x1="670.4860" x2="765.1472" stroke="#48cae4" y1="455.3388"/><line y2="550.0000" stroke-width="0.50" x1="672.9455" x2="772.2183" stroke="#48cae4" y1="450.7272"/><line y2="550.0000" stroke-width="0.50" x1="675.4050" x2="779.2893" stroke="#48cae4" y1="446.1157"/><line y2="536.3706" stroke-width="0.50" x1="677.8645" x2="772.7310" stroke="#48cae4" y1="441.5041"/><line y2="521.2183" stroke-width="0.50" x1="680.3240" x2="764.6498" stroke="#48cae4" y1="436.8925"/><line y2="490.9137" stroke-width="0.50" x1="685.2430" x2="748.4873" stroke="#48cae4" y1="427.6694"/><line y2="475.7614" stroke-width="0.50" x1="687.7025" x2="740.4061" stroke="#48cae4" y1="423.0578"/><line y2="445.4569" stroke-width="0.50" x1="692.6215" x2="724.2437" stroke="#48cae4" y1="413.8347"/></g></svg>